<svg width="37" height="37" viewBox="0 0 37 37" fill="none" xmlns="http://www.w3.org/2000/svg">
<path d="M18.5 0C8.28267 0 0 8.28271 0 18.5C0 28.7172 8.28267 36.9999 18.5 36.9999C27.6667 36.9999 35.2762 30.3329 36.7441 21.5833H36.6114C35.2422 26.9027 30.4134 30.8333 24.6666 30.8333C17.8551 30.8333 12.3333 25.3115 12.3333 18.5C12.3333 11.6884 17.8551 6.16665 24.6666 6.16665C30.4134 6.16665 35.2422 10.0972 36.6114 15.4166H36.7441C35.2762 6.66704 27.6667 0 18.5 0Z" fill="#A4BCFD"/>
<path d="M0 18.5C0 8.28271 8.28271 0 18.5 0C27.6667 0 35.2762 6.66704 36.7441 15.4166H24.2781C22.9089 10.0972 18.0801 6.16665 12.3333 6.16665C5.52181 6.16665 0 11.6885 0 18.5Z" fill="#3538CD"/>
<path d="M0 18.4999C0 28.7172 8.28271 36.9999 18.5 36.9999C27.6667 36.9999 35.2762 30.3329 36.7441 21.5833H24.2781C22.9089 26.9027 18.0801 30.8333 12.3333 30.8333C5.52181 30.8333 0 25.3114 0 18.4999Z" fill="#3538CD"/>
</svg>
