<svg width="86" height="23" viewBox="0 0 86 23" fill="none" xmlns="http://www.w3.org/2000/svg">
<path d="M15.1163 6.02142C14.5887 2.21092 11.6576 0 7.85548 0C3.37501 0 0 3.26614 0 8.8102C0 14.3459 3.33313 17.6204 7.85548 17.6204C11.934 17.6204 14.639 14.9824 15.1163 11.7078L11.9842 11.6911C11.5906 13.701 9.94916 14.8316 7.89735 14.8316C5.11695 14.8316 3.12377 12.7463 3.12377 8.8102C3.12377 4.94108 5.1002 2.78878 7.90573 2.78878C9.99103 2.78878 11.6241 3.96961 11.9842 6.02142H15.1163Z" fill="#101828"/>
<path d="M21.5293 17.6455C23.5476 17.6455 24.7535 16.6992 25.3063 15.6188H25.4068V17.3859H28.3212V8.7767C28.3212 5.37656 25.5491 4.35485 23.0954 4.35485C20.3903 4.35485 18.3134 5.56081 17.6434 7.90573L20.4741 8.30771C20.7756 7.42837 21.6298 6.67465 23.1121 6.67465C24.5191 6.67465 25.2895 7.39487 25.2895 8.65945V8.7097C25.2895 9.58067 24.3767 9.62254 22.1071 9.86541C19.6115 10.1334 17.2247 10.8788 17.2247 13.7764C17.2247 16.3056 19.0755 17.6455 21.5293 17.6455ZM22.3165 15.4178C21.0519 15.4178 20.1475 14.84 20.1475 13.7262C20.1475 12.5621 21.1608 12.0763 22.5175 11.8837C23.3131 11.7748 24.9043 11.5739 25.2979 11.2556V12.7714C25.2979 14.2035 24.1422 15.4178 22.3165 15.4178Z" fill="#101828"/>
<path d="M37.793 4.52234H35.2554V1.44045H32.2238V4.52234H30.3981V6.86726H32.2238V14.0193C32.207 16.4396 33.9657 17.6288 36.2436 17.5618C37.1062 17.5366 37.7008 17.3692 38.0275 17.2603L37.5166 14.8902C37.3491 14.9321 37.0057 15.0075 36.6289 15.0075C35.8668 15.0075 35.2554 14.7395 35.2554 13.5168V6.86726H37.793V4.52234Z" fill="#101828"/>
<path d="M44.03 17.6455C46.0483 17.6455 47.2543 16.6992 47.807 15.6188H47.9075V17.3859H50.8219V8.7767C50.8219 5.37656 48.0499 4.35485 45.5961 4.35485C42.8911 4.35485 40.8141 5.56081 40.1442 7.90573L42.9748 8.30771C43.2763 7.42837 44.1305 6.67465 45.6129 6.67465C47.0198 6.67465 47.7903 7.39487 47.7903 8.65945V8.7097C47.7903 9.58067 46.8774 9.62254 44.6079 9.86541C42.1122 10.1334 39.7254 10.8788 39.7254 13.7764C39.7254 16.3056 41.5762 17.6455 44.03 17.6455ZM44.8173 15.4178C43.5527 15.4178 42.6482 14.84 42.6482 13.7262C42.6482 12.5621 43.6615 12.0763 45.0183 11.8837C45.8138 11.7748 47.405 11.5739 47.7987 11.2556V12.7714C47.7987 14.2035 46.6429 15.4178 44.8173 15.4178Z" fill="#101828"/>
<path d="M56.902 0.234492H53.8703V17.3859H56.902V0.234492Z" fill="#101828"/>
<path d="M65.6305 17.6371C69.3991 17.6371 71.7943 14.9824 71.7943 11.0044C71.7943 7.01801 69.3991 4.35485 65.6305 4.35485C61.8619 4.35485 59.4667 7.01801 59.4667 11.0044C59.4667 14.9824 61.8619 17.6371 65.6305 17.6371ZM65.6472 15.2085C63.5619 15.2085 62.5402 13.3493 62.5402 10.996C62.5402 8.6427 63.5619 6.75839 65.6472 6.75839C67.6991 6.75839 68.7208 8.6427 68.7208 10.996C68.7208 13.3493 67.6991 15.2085 65.6472 15.2085Z" fill="#101828"/>
<path d="M79.9617 22.4777C83.4372 22.4777 85.9999 20.8865 85.9999 17.5953V4.52234H83.0101V6.64952H82.8426C82.382 5.71993 81.4189 4.35485 79.1494 4.35485C76.1763 4.35485 73.8398 6.68302 73.8398 10.9123C73.8398 15.108 76.1764 17.2017 79.141 17.2017C81.3436 17.2017 82.3736 16.0208 82.8426 15.0745H82.9934V17.5115C82.9934 19.4042 81.7372 20.1831 80.012 20.1831C78.1863 20.1831 77.3823 19.3205 77.0138 18.5667L74.2837 19.2283C74.8364 21.0289 76.6872 22.4777 79.9617 22.4777ZM79.9869 14.8232C77.9853 14.8232 76.9301 13.2655 76.9301 10.8955C76.9301 8.55896 77.9685 6.84214 79.9869 6.84214C81.9382 6.84214 83.0101 8.45846 83.0101 10.8955C83.0101 13.3493 81.9214 14.8232 79.9869 14.8232Z" fill="#101828"/>
</svg>
