<svg width="30" height="30" viewBox="0 0 30 30" fill="none" xmlns="http://www.w3.org/2000/svg">
<path d="M9.05284 13.8533C9.61347 11.7613 11.7639 9.61091 13.8559 9.05028L26.8983 5.55504C28.9903 4.9944 30.2317 6.23582 29.6711 8.32782L26.1759 21.3703C25.6152 23.4623 23.4648 25.6127 21.3728 26.1733L8.33038 29.6685C6.23838 30.2292 4.99696 28.9878 5.55759 26.8958L9.05284 13.8533Z" fill="#9E77ED"/>
<path d="M3.82423 8.62456C4.38486 6.53256 6.53525 4.38218 8.62725 3.82154L21.6697 0.326297C23.7617 -0.234337 25.0031 1.00708 24.4425 3.09908L20.9473 16.1415C20.3866 18.2335 18.2362 20.3839 16.1442 20.9446L3.10177 24.4398C1.00977 25.0004 -0.231651 23.759 0.328983 21.667L3.82423 8.62456Z" fill="#6941C6"/>
</svg>
