<svg width="87" height="18" viewBox="0 0 87 18" fill="none" xmlns="http://www.w3.org/2000/svg">
<path d="M15.0734 16.2214C14.6469 16.7483 14.1263 17.1497 13.5115 17.4257C12.9093 17.7017 12.2444 17.8397 11.5168 17.8397C10.5382 17.8397 9.65378 17.6265 8.86341 17.1999C8.07304 16.7859 7.16976 16.0457 6.15358 14.9794C4.96175 14.8288 3.89538 14.4462 2.95447 13.8314C2.0261 13.2167 1.29846 12.4263 0.77155 11.4603C0.257183 10.4818 0 9.40287 0 8.22359C0 6.9314 0.307365 5.77094 0.922096 4.74221C1.54937 3.70093 2.40874 2.88547 3.5002 2.29583C4.60421 1.70619 5.83994 1.41137 7.2074 1.41137C8.57486 1.41137 9.80432 1.70619 10.8958 2.29583C11.9872 2.88547 12.8466 3.70093 13.4739 4.74221C14.1012 5.77094 14.4148 6.9314 14.4148 8.22359C14.4148 9.75414 13.982 11.0965 13.1163 12.2507C12.2632 13.4049 11.1279 14.2078 9.71023 14.6594C10.0239 14.9856 10.325 15.2177 10.6135 15.3557C10.9146 15.5063 11.2345 15.5815 11.5732 15.5815C12.3887 15.5815 13.1038 15.2554 13.7185 14.603L15.0734 16.2214ZM3.0862 8.22359C3.0862 9.03905 3.26184 9.76669 3.61311 10.4065C3.97693 11.0463 4.47248 11.5482 5.09975 11.912C5.72703 12.2632 6.42958 12.4389 7.2074 12.4389C7.98522 12.4389 8.68777 12.2632 9.31505 11.912C9.94232 11.5482 10.4316 11.0463 10.7829 10.4065C11.1467 9.76669 11.3286 9.03905 11.3286 8.22359C11.3286 7.40813 11.1467 6.68049 10.7829 6.04067C10.4316 5.40085 9.94232 4.9053 9.31505 4.55402C8.68777 4.1902 7.98522 4.00829 7.2074 4.00829C6.42958 4.00829 5.72703 4.1902 5.09975 4.55402C4.47248 4.9053 3.97693 5.40085 3.61311 6.04067C3.26184 6.68049 3.0862 7.40813 3.0862 8.22359Z" fill="#101828"/>
<path d="M26.6984 4.68575V14.81H23.9133V13.6056C23.5244 14.0447 23.0602 14.3834 22.5208 14.6218C21.9813 14.8476 21.398 14.9605 20.7707 14.9605C19.4408 14.9605 18.387 14.5779 17.6092 13.8126C16.8314 13.0473 16.4425 11.912 16.4425 10.4065V4.68575H19.3781V9.97369C19.3781 11.6046 20.0619 12.4201 21.4293 12.4201C22.1319 12.4201 22.6964 12.1942 23.123 11.7426C23.5495 11.2784 23.7628 10.5947 23.7628 9.69141V4.68575H26.6984Z" fill="#101828"/>
<path d="M34.2356 14.9605C33.1692 14.9605 32.2095 14.741 31.3564 14.3019C30.5158 13.8503 29.8572 13.2292 29.3805 12.4389C28.9037 11.6485 28.6654 10.7515 28.6654 9.74787C28.6654 8.74423 28.9037 7.84722 29.3805 7.05685C29.8572 6.26649 30.5158 5.65176 31.3564 5.21266C32.2095 4.76102 33.1692 4.53521 34.2356 4.53521C35.302 4.53521 36.2554 4.76102 37.096 5.21266C37.9365 5.65176 38.5952 6.26649 39.0719 7.05685C39.5486 7.84722 39.787 8.74423 39.787 9.74787C39.787 10.7515 39.5486 11.6485 39.0719 12.4389C38.5952 13.2292 37.9365 13.8503 37.096 14.3019C36.2554 14.741 35.302 14.9605 34.2356 14.9605ZM34.2356 12.5518C34.9883 12.5518 35.6031 12.3009 36.0798 11.7991C36.5691 11.2847 36.8137 10.601 36.8137 9.74787C36.8137 8.89477 36.5691 8.21732 36.0798 7.71549C35.6031 7.20113 34.9883 6.94394 34.2356 6.94394C33.4829 6.94394 32.8619 7.20113 32.3726 7.71549C31.8833 8.21732 31.6387 8.89477 31.6387 9.74787C31.6387 10.601 31.8833 11.2847 32.3726 11.7991C32.8619 12.3009 33.4829 12.5518 34.2356 12.5518Z" fill="#101828"/>
<path d="M48.2792 14.3207C47.9906 14.534 47.6331 14.6971 47.2065 14.81C46.7925 14.9103 46.3534 14.9605 45.8893 14.9605C44.6849 14.9605 43.7502 14.6532 43.0853 14.0384C42.433 13.4237 42.1068 12.5204 42.1068 11.3286V7.16976H40.5449V4.91157H42.1068V2.44638H45.0424V4.91157H47.5641V7.16976H45.0424V11.291C45.0424 11.7175 45.1491 12.05 45.3623 12.2883C45.5882 12.5142 45.9018 12.6271 46.3033 12.6271C46.7674 12.6271 47.1626 12.5016 47.4888 12.2507L48.2792 14.3207Z" fill="#101828"/>
<path d="M49.9271 4.68575H52.8627V14.81H49.9271V4.68575ZM51.3949 3.27438C50.8555 3.27438 50.4164 3.11756 50.0776 2.80392C49.7389 2.49029 49.5695 2.10137 49.5695 1.63719C49.5695 1.17301 49.7389 0.784095 50.0776 0.470458C50.4164 0.156819 50.8555 0 51.3949 0C51.9344 0 52.3735 0.150547 52.7122 0.45164C53.0509 0.752732 53.2203 1.1291 53.2203 1.58074C53.2203 2.07001 53.0509 2.47774 52.7122 2.80392C52.3735 3.11756 51.9344 3.27438 51.3949 3.27438Z" fill="#101828"/>
<path d="M65.5045 9.78551C65.5045 9.82314 65.4857 10.0866 65.4481 10.5759H57.789C57.927 11.2031 58.2532 11.6987 58.7676 12.0625C59.2819 12.4263 59.9218 12.6082 60.687 12.6082C61.2139 12.6082 61.6781 12.533 62.0796 12.3824C62.4936 12.2193 62.8762 11.9684 63.2275 11.6297L64.7894 13.3233C63.836 14.4148 62.4434 14.9605 60.6118 14.9605C59.4701 14.9605 58.4602 14.741 57.582 14.3019C56.7038 13.8503 56.0264 13.2292 55.5496 12.4389C55.0729 11.6485 54.8346 10.7515 54.8346 9.74787C54.8346 8.75677 55.0666 7.86604 55.5308 7.07567C56.0076 6.27276 56.6537 5.65176 57.4691 5.21266C58.2971 4.76102 59.2192 4.53521 60.2354 4.53521C61.2265 4.53521 62.1235 4.74848 62.9264 5.17503C63.7293 5.60157 64.3566 6.2163 64.8082 7.01922C65.2724 7.80959 65.5045 8.73168 65.5045 9.78551ZM60.2542 6.75576C59.5893 6.75576 59.031 6.94394 58.5794 7.32031C58.1277 7.69668 57.8517 8.21104 57.7514 8.86341H62.7382C62.6379 8.22359 62.3619 7.7155 61.9102 7.33913C61.4586 6.95022 60.9066 6.75576 60.2542 6.75576Z" fill="#101828"/>
<path d="M73.6125 4.53521C74.8671 4.53521 75.877 4.91157 76.6423 5.6643C77.4201 6.41703 77.809 7.53358 77.809 9.01396V14.81H74.8734V9.46559C74.8734 8.66268 74.6977 8.06677 74.3465 7.67786C73.9952 7.2764 73.4871 7.07567 72.8222 7.07567C72.082 7.07567 71.4923 7.30777 71.0533 7.77195C70.6142 8.22359 70.3946 8.90105 70.3946 9.80432V14.81H67.459V4.68575H70.2629V5.8713C70.6518 5.44476 71.1348 5.11857 71.7119 4.89275C72.289 4.65439 72.9225 4.53521 73.6125 4.53521Z" fill="#101828"/>
<path d="M87 14.3207C86.7114 14.534 86.3539 14.6971 85.9273 14.81C85.5133 14.9103 85.0742 14.9605 84.6101 14.9605C83.4057 14.9605 82.471 14.6532 81.8061 14.0384C81.1538 13.4237 80.8276 12.5204 80.8276 11.3286V7.16976H79.2657V4.91157H80.8276V2.44638H83.7632V4.91157H86.2849V7.16976H83.7632V11.291C83.7632 11.7175 83.8699 12.05 84.0832 12.2883C84.309 12.5142 84.6226 12.6271 85.0241 12.6271C85.4882 12.6271 85.8834 12.5016 86.2096 12.2507L87 14.3207Z" fill="#101828"/>
</svg>
