<svg width="59" height="18" viewBox="0 0 59 18" fill="none" xmlns="http://www.w3.org/2000/svg">
<path d="M2.15094 11.3773H6.5849V13.1132H0V0H2.15094V11.3773Z" fill="#101828"/>
<path d="M7.66671 7.86792C7.66671 6.82389 7.88054 5.89937 8.30822 5.09434C8.74847 4.2893 9.33966 3.66666 10.0818 3.22641C10.8365 2.77358 11.6667 2.54717 12.5724 2.54717C13.39 2.54717 14.1007 2.71069 14.7044 3.03773C15.3208 3.3522 15.8114 3.74843 16.1761 4.22641V2.71698H18.3459V13.1132H16.1761V11.566C15.8114 12.0566 15.3145 12.4654 14.6856 12.7924C14.0566 13.1195 13.3397 13.283 12.5346 13.283C11.6415 13.283 10.8239 13.0566 10.0818 12.6038C9.33966 12.1384 8.74847 11.4968 8.30822 10.6792C7.88054 9.84905 7.66671 8.91194 7.66671 7.86792ZM16.1761 7.90565C16.1761 7.18867 16.0252 6.56603 15.7233 6.03773C15.434 5.50943 15.0503 5.10691 14.5724 4.83019C14.0944 4.55346 13.5787 4.41509 13.0252 4.41509C12.4717 4.41509 11.956 4.55346 11.478 4.83019C11 5.09434 10.6101 5.49056 10.3082 6.01886C10.0189 6.53459 9.87425 7.15094 9.87425 7.86792C9.87425 8.5849 10.0189 9.21383 10.3082 9.75471C10.6101 10.2956 11 10.7107 11.478 11C11.9686 11.2767 12.4843 11.4151 13.0252 11.4151C13.5787 11.4151 14.0944 11.2767 14.5724 11C15.0503 10.7233 15.434 10.3207 15.7233 9.79245C16.0252 9.25157 16.1761 8.62263 16.1761 7.90565Z" fill="#101828"/>
<path d="M30.5296 2.71698L24.1522 18H21.9258L24.039 12.9434L19.9447 2.71698H22.3409L25.2655 10.6415L28.3032 2.71698H30.5296Z" fill="#101828"/>
<path d="M41.6811 7.66037C41.6811 8.05031 41.656 8.40251 41.6056 8.71697H33.6623C33.7252 9.54716 34.0333 10.2138 34.5868 10.717C35.1402 11.2201 35.8195 11.4717 36.6245 11.4717C37.7818 11.4717 38.5994 10.9874 39.0773 10.0189H41.3981C41.0836 10.9748 40.5113 11.761 39.6811 12.3773C38.8635 12.9811 37.8446 13.283 36.6245 13.283C35.6308 13.283 34.7377 13.0629 33.9453 12.6226C33.1654 12.1698 32.5491 11.5409 32.0962 10.7358C31.656 9.91823 31.4358 8.97484 31.4358 7.90565C31.4358 6.83647 31.6497 5.89937 32.0774 5.09434C32.5176 4.27673 33.1277 3.6478 33.9075 3.20754C34.7 2.76729 35.6057 2.54717 36.6245 2.54717C37.6057 2.54717 38.4799 2.761 39.2472 3.18868C40.0145 3.61635 40.6119 4.22012 41.0396 5C41.4673 5.76729 41.6811 6.65408 41.6811 7.66037ZM39.4358 6.98113C39.4233 6.18867 39.1402 5.55346 38.5868 5.07547C38.0333 4.59748 37.3478 4.35849 36.5302 4.35849C35.788 4.35849 35.1528 4.59748 34.6245 5.07547C34.0962 5.54088 33.7818 6.1761 33.6811 6.98113H39.4358Z" fill="#101828"/>
<path d="M45.9488 4.22641C46.2633 3.69811 46.6784 3.28931 47.1941 3C47.7224 2.69811 48.345 2.54717 49.062 2.54717V4.77358H48.5148C47.6721 4.77358 47.0306 4.98742 46.5903 5.41509C46.1626 5.84276 45.9488 6.5849 45.9488 7.6415V13.1132H43.7979V2.71698H45.9488V4.22641Z" fill="#101828"/>
<path d="M54.8127 13.283C53.9951 13.283 53.2593 13.1384 52.6052 12.849C51.9637 12.5472 51.4543 12.1446 51.0769 11.6415C50.6995 11.1258 50.4983 10.5535 50.4731 9.92452H52.6995C52.7373 10.3648 52.9448 10.7358 53.3222 11.0377C53.7121 11.327 54.1964 11.4717 54.775 11.4717C55.3788 11.4717 55.8442 11.3585 56.1712 11.1321C56.5109 10.8931 56.6807 10.5912 56.6807 10.2264C56.6807 9.83647 56.492 9.54716 56.1146 9.35848C55.7498 9.1698 55.1649 8.96226 54.3599 8.73584C53.58 8.52201 52.9448 8.31446 52.4543 8.1132C51.9637 7.91194 51.536 7.60377 51.1712 7.18867C50.819 6.77358 50.6429 6.22641 50.6429 5.54717C50.6429 4.99371 50.8065 4.49056 51.1335 4.03773C51.4605 3.57232 51.926 3.20755 52.5297 2.94339C53.1461 2.67924 53.8505 2.54717 54.6429 2.54717C55.8253 2.54717 56.775 2.84906 57.492 3.45283C58.2215 4.04402 58.6115 4.85534 58.6618 5.88679H56.5109C56.4731 5.42138 56.2844 5.05031 55.9448 4.77358C55.6052 4.49685 55.1461 4.35849 54.5675 4.35849C54.0014 4.35849 53.5675 4.46541 53.2656 4.67924C52.9637 4.89308 52.8127 5.1761 52.8127 5.5283C52.8127 5.80503 52.9134 6.03773 53.1146 6.22641C53.3159 6.41509 53.5612 6.56603 53.8505 6.67924C54.1398 6.77987 54.5675 6.91194 55.1335 7.07547C55.8882 7.27672 56.5046 7.48427 56.9825 7.69811C57.4731 7.89937 57.8945 8.20125 58.2467 8.60377C58.5989 9.00628 58.7813 9.54087 58.7939 10.2075C58.7939 10.7987 58.6303 11.327 58.3033 11.7924C57.9763 12.2579 57.5109 12.6226 56.9071 12.8868C56.3159 13.1509 55.6178 13.283 54.8127 13.283Z" fill="#101828"/>
</svg>
