<svg width="126" height="21" viewBox="0 0 126 21" fill="none" xmlns="http://www.w3.org/2000/svg">
<path d="M16.8259 15.1095C16.2631 16.929 15.2783 18.289 13.8715 19.1894C12.4646 20.071 10.8233 20.5118 8.94753 20.5118C7.10925 20.5118 5.51483 20.1273 4.16426 19.3582C2.83245 18.5891 1.80076 17.4918 1.0692 16.0662C0.356401 14.6406 0 12.9336 0 10.9453C0 8.95691 0.36578 7.24994 1.09734 5.82434C1.8289 4.39874 2.86058 3.3014 4.1924 2.53232C5.52421 1.76325 7.0905 1.37871 8.89126 1.37871C10.7858 1.37871 12.4084 1.782 13.7589 2.58859C15.1283 3.37643 16.0662 4.57694 16.5726 6.19012L13.0555 7.68137C12.7366 6.5559 12.2489 5.75869 11.5924 5.28974C10.9359 4.80203 10.0918 4.55818 9.06008 4.55818C7.52193 4.55818 6.29328 5.11154 5.37415 6.21825C4.47377 7.30621 4.02358 8.88188 4.02358 10.9453C4.02358 12.9899 4.45501 14.5655 5.31787 15.6723C6.18074 16.779 7.42814 17.3323 9.06008 17.3323C10.073 17.3323 10.9453 17.0603 11.6768 16.5164C12.4271 15.9724 12.9523 15.147 13.2525 14.0403L16.8259 15.1095Z" fill="#101828"/>
<path d="M21.6828 4.13612C20.0883 4.13612 19.2911 3.45146 19.2911 2.08213C19.2911 0.694043 20.0883 0 21.6828 0C23.2772 0 24.0744 0.694043 24.0744 2.08213C24.0744 3.45146 23.2772 4.13612 21.6828 4.13612ZM23.5961 6.16198V20.2304H19.7413V6.16198H23.5961Z" fill="#101828"/>
<path d="M27.6823 20.2304V6.16198H31.0306L31.2838 8.9194C31.6402 7.96274 32.1748 7.2218 32.8876 6.69658C33.6192 6.1526 34.5383 5.88061 35.645 5.88061C36.3016 5.88061 36.808 5.98378 37.1644 6.19012L36.7142 9.42586C36.5267 9.36959 36.2922 9.32269 36.0108 9.28518C35.7482 9.2289 35.4012 9.20077 34.9698 9.20077C34.3883 9.20077 33.8349 9.34145 33.3097 9.62282C32.8032 9.88543 32.3812 10.2981 32.0435 10.8608C31.7059 11.4048 31.5371 12.0989 31.5371 12.943V20.2304H27.6823Z" fill="#101828"/>
<path d="M45.6649 5.88061C47.5406 5.88061 48.9944 6.28391 50.0261 7.0905C51.0765 7.89709 51.7706 8.8725 52.1082 10.0167L48.5067 11.311C48.1315 9.60406 47.203 8.75058 45.7211 8.75058C44.6519 8.75058 43.8172 9.12573 43.2169 9.87605C42.6354 10.6264 42.3447 11.7425 42.3447 13.2243C42.3447 14.725 42.6448 15.8411 43.2451 16.5726C43.8641 17.2854 44.6988 17.6418 45.7493 17.6418C47.3812 17.6418 48.3566 16.8071 48.6755 15.1377L52.1645 16.2631C51.8456 17.5199 51.1328 18.5422 50.0261 19.33C48.9381 20.1179 47.5219 20.5118 45.7774 20.5118C44.3143 20.5118 43.0294 20.2211 41.9226 19.6396C40.8347 19.0581 39.9906 18.2233 39.3903 17.1354C38.7901 16.0474 38.4899 14.7344 38.4899 13.1962C38.4899 11.6581 38.7901 10.345 39.3903 9.25704C40.0093 8.16908 40.8534 7.33435 41.9226 6.75286C43.0106 6.17136 44.258 5.88061 45.6649 5.88061Z" fill="#101828"/>
<path d="M61.5749 5.88061C62.9818 5.88061 64.2292 6.17136 65.3172 6.75286C66.4051 7.33435 67.2492 8.16908 67.8495 9.25704C68.4685 10.345 68.778 11.6581 68.778 13.1962C68.778 14.7344 68.4685 16.0474 67.8495 17.1354C67.2492 18.2233 66.4051 19.0581 65.3172 19.6396C64.2292 20.2211 62.9818 20.5118 61.5749 20.5118C60.1493 20.5118 58.8926 20.2211 57.8046 19.6396C56.7354 19.0581 55.8913 18.2233 55.2723 17.1354C54.672 16.0474 54.3719 14.7344 54.3719 13.1962C54.3719 11.6581 54.672 10.345 55.2723 9.25704C55.8913 8.16908 56.7354 7.33435 57.8046 6.75286C58.8926 6.17136 60.1493 5.88061 61.5749 5.88061ZM61.5749 8.75058C60.5245 8.75058 59.6992 9.12573 59.0989 9.87605C58.5174 10.6076 58.2267 11.7143 58.2267 13.1962C58.2267 14.6781 58.5174 15.7942 59.0989 16.5445C59.6992 17.2761 60.5245 17.6418 61.5749 17.6418C62.6066 17.6418 63.4132 17.2761 63.9947 16.5445C64.595 15.7942 64.8951 14.6781 64.8951 13.1962C64.8951 11.7143 64.595 10.6076 63.9947 9.87605C63.4132 9.12573 62.6066 8.75058 61.5749 8.75058Z" fill="#101828"/>
<path d="M78.4186 5.88061C79.8255 5.88061 81.0729 6.17136 82.1608 6.75286C83.2488 7.33435 84.0929 8.16908 84.6931 9.25704C85.3121 10.345 85.6217 11.6581 85.6217 13.1962C85.6217 14.7344 85.3121 16.0474 84.6931 17.1354C84.0929 18.2233 83.2488 19.0581 82.1608 19.6396C81.0729 20.2211 79.8255 20.5118 78.4186 20.5118C76.993 20.5118 75.7362 20.2211 74.6483 19.6396C73.5791 19.0581 72.735 18.2233 72.1159 17.1354C71.5157 16.0474 71.2156 14.7344 71.2156 13.1962C71.2156 11.6581 71.5157 10.345 72.1159 9.25704C72.735 8.16908 73.5791 7.33435 74.6483 6.75286C75.7362 6.17136 76.993 5.88061 78.4186 5.88061ZM78.4186 8.75058C77.3682 8.75058 76.5428 9.12573 75.9426 9.87605C75.3611 10.6076 75.0703 11.7143 75.0703 13.1962C75.0703 14.6781 75.3611 15.7942 75.9426 16.5445C76.5428 17.2761 77.3682 17.6418 78.4186 17.6418C79.4503 17.6418 80.2569 17.2761 80.8384 16.5445C81.4386 15.7942 81.7388 14.6781 81.7388 13.1962C81.7388 11.7143 81.4386 10.6076 80.8384 9.87605C80.2569 9.12573 79.4503 8.75058 78.4186 8.75058Z" fill="#101828"/>
<path d="M92.6455 0V15.8973C92.6455 16.5539 92.7581 17.0134 92.9832 17.2761C93.2083 17.5387 93.5834 17.67 94.1087 17.67C94.4275 17.67 94.6902 17.6512 94.8965 17.6137C95.1028 17.5762 95.3654 17.5012 95.6843 17.3886L95.3467 19.9209C95.0278 20.1085 94.6245 20.2492 94.1368 20.343C93.6678 20.4555 93.1989 20.5118 92.73 20.5118C91.3606 20.5118 90.3571 20.1835 89.7193 19.527C89.1003 18.8517 88.7908 17.7825 88.7908 16.3194V0H92.6455Z" fill="#101828"/>
<path d="M104.36 20.5118C102.147 20.5118 100.374 19.874 99.0421 18.5985C97.7103 17.3042 97.0444 15.5034 97.0444 13.1962C97.0444 11.6581 97.3445 10.345 97.9447 9.25704C98.545 8.16908 99.3797 7.33435 100.449 6.75286C101.537 6.17136 102.775 5.88061 104.163 5.88061C105.589 5.88061 106.798 6.17136 107.793 6.75286C108.787 7.31559 109.547 8.09405 110.072 9.08822C110.597 10.0636 110.86 11.1797 110.86 12.4365C110.86 12.8117 110.85 13.1681 110.831 13.5057C110.813 13.8434 110.785 14.1435 110.747 14.4061H100.815C100.965 15.4941 101.34 16.31 101.94 16.854C102.559 17.3792 103.356 17.6418 104.332 17.6418C105.157 17.6418 105.823 17.4824 106.33 17.1635C106.836 16.8446 107.23 16.4038 107.511 15.8411L110.578 17.0228C110.128 18.1295 109.34 18.9924 108.215 19.6114C107.089 20.2117 105.804 20.5118 104.36 20.5118ZM104.135 8.72244C102.315 8.72244 101.218 9.72599 100.843 11.7331H107.174C107.061 10.7577 106.742 10.0167 106.217 9.51027C105.711 8.98505 105.016 8.72244 104.135 8.72244Z" fill="#101828"/>
<path d="M119.754 20.5118C118.328 20.5118 117.024 20.2586 115.843 19.7521C114.68 19.2456 113.732 18.5328 113.001 17.6137L115.224 15.3627C115.674 16.038 116.274 16.5914 117.024 17.0228C117.775 17.4543 118.666 17.67 119.697 17.67C120.429 17.67 121.01 17.5668 121.442 17.3605C121.892 17.1354 122.117 16.7884 122.117 16.3194C122.117 16.0193 122.014 15.766 121.808 15.5597C121.601 15.3346 121.189 15.1564 120.57 15.0251L118.094 14.5186C116.462 14.181 115.299 13.6745 114.605 12.9992C113.929 12.3052 113.592 11.4142 113.592 10.3262C113.592 9.55717 113.817 8.83499 114.267 8.1597C114.736 7.48441 115.43 6.94043 116.349 6.52776C117.268 6.09633 118.412 5.88061 119.782 5.88061C122.633 5.88061 124.678 6.75285 125.916 8.49734L123.608 10.7483C123.196 10.0918 122.652 9.59468 121.976 9.25704C121.32 8.90064 120.626 8.72244 119.894 8.72244C118.244 8.72244 117.418 9.18201 117.418 10.1011C117.418 10.4013 117.55 10.6639 117.812 10.889C118.075 11.0953 118.553 11.2735 119.247 11.4236L122.117 12.0145C123.505 12.2958 124.499 12.7742 125.1 13.4494C125.7 14.106 126 14.9032 126 15.8411C126 17.1916 125.456 18.3077 124.368 19.1894C123.299 20.071 121.761 20.5118 119.754 20.5118Z" fill="#101828"/>
</svg>
