<svg width="30" height="30" viewBox="0 0 30 30" fill="none" xmlns="http://www.w3.org/2000/svg">
<path fill-rule="evenodd" clip-rule="evenodd" d="M15 23.5C19.6944 23.5 23.5 19.6944 23.5 15C23.5 10.3056 19.6944 6.5 15 6.5C10.3056 6.5 6.5 10.3056 6.5 15C6.5 19.6944 10.3056 23.5 15 23.5ZM15 30C23.2843 30 30 23.2843 30 15C30 6.71573 23.2843 0 15 0C6.71572 0 0 6.71573 0 15C0 23.2843 6.71572 30 15 30Z" fill="#6938EF"/>
<path d="M15.1717 15.3284C16.7338 13.7663 19.2664 13.7663 20.8285 15.3284L28.6067 23.1066C30.1688 24.6687 30.1688 27.2014 28.6067 28.7635C27.0446 30.3255 24.5119 30.3255 22.9498 28.7635L15.1717 20.9853C13.6096 19.4232 13.6096 16.8905 15.1717 15.3284Z" fill="#F670C7"/>
<path d="M17.3556 23.1694L22.2956 28.1094C24.6651 26.7879 26.6392 24.8426 27.9957 22.4957L23.0962 17.5962C22.2356 20.2822 20.0755 22.3865 17.3556 23.1694Z" fill="#6519BA"/>
</svg>
