<svg width="106" height="23" viewBox="0 0 106 23" fill="none" xmlns="http://www.w3.org/2000/svg">
<path d="M6.49303 18.3969C5.22265 18.3969 3.99149 18.2166 2.79953 17.8558C1.62326 17.4951 0.69008 17.0168 0 16.4208L1.05865 14.0447C1.73304 14.578 2.55643 15.0171 3.52882 15.3621C4.51689 15.6915 5.50496 15.8562 6.49303 15.8562C7.71635 15.8562 8.626 15.6601 9.22198 15.268C9.83364 14.8759 10.1395 14.3584 10.1395 13.7154C10.1395 13.2448 9.96695 12.8606 9.62191 12.5626C9.29256 12.2489 8.8691 12.0058 8.35154 11.8333C7.83398 11.6608 7.12821 11.4647 6.23425 11.2452C4.97956 10.9472 3.96012 10.6492 3.17594 10.3512C2.40744 10.0532 1.74088 9.59055 1.17627 8.9632C0.627346 8.32017 0.352882 7.45757 0.352882 6.3754C0.352882 5.46575 0.595978 4.64236 1.08217 3.90523C1.58405 3.15241 2.32902 2.55643 3.31709 2.11729C4.32084 1.67815 5.54417 1.45858 6.98706 1.45858C7.99081 1.45858 8.97889 1.58405 9.95127 1.83499C10.9237 2.08592 11.7627 2.44665 12.4685 2.91716L11.504 5.29323C10.7825 4.86977 10.0297 4.54826 9.24551 4.32869C8.46132 4.10912 7.70067 3.99933 6.96354 3.99933C5.7559 3.99933 4.85409 4.20322 4.25811 4.61099C3.67781 5.01877 3.38767 5.55985 3.38767 6.23425C3.38767 6.70476 3.55234 7.08901 3.8817 7.387C4.22674 7.68499 4.65804 7.92024 5.1756 8.09276C5.69316 8.26528 6.39893 8.46133 7.29289 8.6809C8.51622 8.9632 9.51997 9.26119 10.3042 9.57487C11.0883 9.87286 11.7549 10.3355 12.3038 10.9629C12.8684 11.5902 13.1507 12.4371 13.1507 13.5036C13.1507 14.4133 12.8998 15.2367 12.3979 15.9738C11.9117 16.7109 11.1668 17.2991 10.163 17.7382C9.15925 18.1773 7.93592 18.3969 6.49303 18.3969Z" fill="#101828"/>
<path d="M15.901 5.59906H18.8417V18.1617H15.901V5.59906ZM17.3831 3.52882C16.8499 3.52882 16.4029 3.36414 16.0422 3.03479C15.6814 2.68975 15.5011 2.26629 15.5011 1.76441C15.5011 1.26253 15.6814 0.846916 16.0422 0.517559C16.4029 0.17252 16.8499 0 17.3831 0C17.9164 0 18.3633 0.164678 18.7241 0.494034C19.0848 0.807708 19.2651 1.20764 19.2651 1.69383C19.2651 2.21139 19.0848 2.65054 18.7241 3.01126C18.379 3.3563 17.932 3.52882 17.3831 3.52882Z" fill="#101828"/>
<path d="M26.583 18.3263C25.5636 18.3263 24.5677 18.193 23.5953 17.9264C22.6229 17.6598 21.8466 17.3226 21.2663 16.9148L22.3955 14.6799C22.9601 15.0563 23.6345 15.3621 24.4187 15.5974C25.2186 15.817 26.0027 15.9267 26.7712 15.9267C28.5278 15.9267 29.4061 15.4641 29.4061 14.5387C29.4061 14.0996 29.1787 13.7938 28.7239 13.6212C28.2847 13.4487 27.5711 13.284 26.583 13.1272C25.5479 12.9704 24.701 12.79 24.0423 12.5861C23.3993 12.3822 22.8346 12.0294 22.3485 11.5275C21.8779 11.0099 21.6427 10.2963 21.6427 9.38666C21.6427 8.19471 22.1367 7.24584 23.1248 6.54008C24.1285 5.81863 25.4773 5.45791 27.1712 5.45791C28.0338 5.45791 28.8964 5.55985 29.759 5.76374C30.6216 5.95194 31.3273 6.21072 31.8763 6.54008L30.747 8.775C29.6806 8.14765 28.4808 7.83398 27.1476 7.83398C26.285 7.83398 25.6263 7.96729 25.1715 8.23391C24.7324 8.48485 24.5128 8.82205 24.5128 9.24551C24.5128 9.71602 24.748 10.0532 25.2186 10.2571C25.7048 10.4453 26.4497 10.6257 27.4535 10.7982C28.4572 10.955 29.2806 11.1354 29.9237 11.3393C30.5667 11.5432 31.1156 11.8882 31.5704 12.3744C32.0409 12.8606 32.2762 13.5507 32.2762 14.4446C32.2762 15.6209 31.7665 16.5619 30.747 17.2677C29.7276 17.9735 28.3396 18.3263 26.583 18.3263Z" fill="#101828"/>
<path d="M46.3417 5.59906L40.4603 19.1733C39.9114 20.5377 39.2448 21.4944 38.4606 22.0434C37.6765 22.608 36.7276 22.8903 35.6141 22.8903C34.9867 22.8903 34.3672 22.7883 33.7555 22.5845C33.1439 22.3806 32.642 22.0983 32.2499 21.7375L33.4262 19.5732C33.7085 19.8398 34.0378 20.0515 34.4143 20.2084C34.8063 20.3652 35.1984 20.4436 35.5905 20.4436C36.1081 20.4436 36.5315 20.3103 36.8609 20.0437C37.2059 19.7771 37.5196 19.3301 37.8019 18.7028L38.0137 18.2087L32.5322 5.59906H35.5905L39.5428 14.8916L43.5186 5.59906H46.3417Z" fill="#101828"/>
<path d="M55.1431 5.45791C56.3664 5.45791 57.4565 5.72453 58.4132 6.25777C59.3855 6.79102 60.1462 7.54383 60.6951 8.51622C61.2441 9.48861 61.5185 10.61 61.5185 11.8804C61.5185 13.1507 61.2441 14.28 60.6951 15.268C60.1462 16.2404 59.3855 16.9932 58.4132 17.5265C57.4565 18.0597 56.3664 18.3263 55.1431 18.3263C53.4493 18.3263 52.1083 17.7617 51.1203 16.6325V22.7256H48.1796V5.59906H50.9791V7.24584C51.4653 6.64987 52.0613 6.20288 52.7671 5.90489C53.4885 5.6069 54.2805 5.45791 55.1431 5.45791ZM54.8138 15.8091C55.8959 15.8091 56.7821 15.4484 57.4721 14.7269C58.1779 14.0055 58.5308 13.0566 58.5308 11.8804C58.5308 10.7041 58.1779 9.75523 57.4721 9.03378C56.7821 8.31233 55.8959 7.95161 54.8138 7.95161C54.108 7.95161 53.4728 8.11629 52.9082 8.44564C52.3436 8.75932 51.8966 9.21414 51.5673 9.81012C51.2379 10.4061 51.0732 11.0962 51.0732 11.8804C51.0732 12.6645 51.2379 13.3546 51.5673 13.9506C51.8966 14.5466 52.3436 15.0093 52.9082 15.3386C53.4728 15.6523 54.108 15.8091 54.8138 15.8091Z" fill="#101828"/>
<path d="M71.4356 5.45791C73.0197 5.45791 74.29 5.92058 75.2467 6.84591C76.2034 7.77125 76.6818 9.14357 76.6818 10.9629V18.1617H73.7411V11.3393C73.7411 10.2414 73.4823 9.41803 72.9648 8.8691C72.4472 8.30449 71.7101 8.02219 70.7534 8.02219C69.6712 8.02219 68.8164 8.35154 68.1891 9.01025C67.5617 9.65328 67.2481 10.5865 67.2481 11.8098V18.1617H64.3074V0.705764H67.2481V7.05764C67.7343 6.54008 68.3303 6.14799 69.036 5.88137C69.7575 5.59906 70.5573 5.45791 71.4356 5.45791Z" fill="#101828"/>
<path d="M92.5749 5.59906V18.1617H89.7754V16.5619C89.3048 17.1265 88.7167 17.5657 88.0109 17.8794C87.3052 18.1773 86.5445 18.3263 85.729 18.3263C84.0508 18.3263 82.7256 17.8637 81.7532 16.9383C80.7965 15.9973 80.3181 14.6093 80.3181 12.7743V5.59906H83.2588V12.3744C83.2588 13.5036 83.5097 14.3505 84.0116 14.9151C84.5292 15.4641 85.2585 15.7385 86.1995 15.7385C87.2503 15.7385 88.0815 15.417 88.6932 14.774C89.3205 14.1153 89.6342 13.1743 89.6342 11.9509V5.59906H92.5749Z" fill="#101828"/>
<path d="M100.307 18.3263C99.2874 18.3263 98.2915 18.193 97.3191 17.9264C96.3467 17.6598 95.5704 17.3226 94.9901 16.9148L96.1193 14.6799C96.6839 15.0563 97.3583 15.3621 98.1425 15.5974C98.9424 15.817 99.7266 15.9267 100.495 15.9267C102.252 15.9267 103.13 15.4641 103.13 14.5387C103.13 14.0996 102.903 13.7938 102.448 13.6212C102.009 13.4487 101.295 13.284 100.307 13.1272C99.2717 12.9704 98.4248 12.79 97.7661 12.5861C97.1231 12.3822 96.5585 12.0294 96.0723 11.5275C95.6018 11.0099 95.3665 10.2963 95.3665 9.38666C95.3665 8.19471 95.8605 7.24584 96.8486 6.54008C97.8524 5.81863 99.2012 5.45791 100.895 5.45791C101.758 5.45791 102.62 5.55985 103.483 5.76374C104.345 5.95194 105.051 6.21072 105.6 6.54008L104.471 8.775C103.404 8.14765 102.205 7.83398 100.871 7.83398C100.009 7.83398 99.3502 7.96729 98.8953 8.23391C98.4562 8.48485 98.2366 8.82205 98.2366 9.24551C98.2366 9.71602 98.4719 10.0532 98.9424 10.2571C99.4286 10.4453 100.174 10.6257 101.177 10.7982C102.181 10.955 103.004 11.1354 103.647 11.3393C104.291 11.5432 104.839 11.8882 105.294 12.3744C105.765 12.8606 106 13.5507 106 14.4446C106 15.6209 105.49 16.5619 104.471 17.2677C103.451 17.9735 102.063 18.3263 100.307 18.3263Z" fill="#101828"/>
</svg>
