<svg width="69" height="57" viewBox="0 0 69 57" fill="none" xmlns="http://www.w3.org/2000/svg">
<path d="M38.0625 9.57657C25.1689 17.363 18.0101 31.6033 13.7077 45.5303C13.4865 46.2461 13.216 46.9644 12.969 47.6635C12.2781 46.2696 7.5639 34.6934 5.66064 35.4012C4.54832 35.8149 5.18459 37.3015 5.42938 37.9011C7.20122 42.2363 8.93217 46.1228 11.0492 50.3151C12.6427 53.4711 15.6078 52.6484 18.545 51.6878C23.0293 50.2213 23.3932 49.8009 27.986 48.113C28.743 47.8347 29.5384 47.6097 30.24 47.262C31.0649 46.8526 31.9494 45.9863 31.5114 45.0421C31.0151 43.9719 29.9353 44.0475 29.0129 44.4404C28.8204 44.5229 28.6248 44.5985 28.4275 44.6694C26.2597 45.4477 16.4206 49.5994 16.0929 48.8975C15.9823 48.6612 16.0197 48.3862 16.0615 48.1288C17.2659 40.7013 20.4554 33.626 24.2233 27.1614C26.7585 22.8111 30.0122 18.8817 33.8037 15.5673C36.8505 12.9038 40.2854 10.6424 44.0272 9.08152C48.0395 7.40752 51.9226 7.0626 56.209 6.80799C58.6766 6.66166 56.7222 4.31071 55.3492 4.04591C53.8403 3.75443 52.2248 4.27787 50.759 4.58303C46.1217 5.55081 41.8869 7.26718 38.0625 9.57657Z" fill="#CA0C64"/>
</svg>
