<svg width="94" height="19" viewBox="0 0 94 19" fill="none" xmlns="http://www.w3.org/2000/svg">
<path d="M10.7617 0.78776V13.8796H8.15956V8.309H2.60214V13.8796H0V0.78776H2.60214V6.17079H8.15956V0.78776H10.7617Z" fill="#D5A6BB"/>
<path d="M17.8952 14.0484C16.9039 14.0484 16.0118 13.8296 15.2187 13.3919C14.4257 12.9418 13.8 12.3103 13.3415 11.4976C12.8954 10.6848 12.6724 9.74697 12.6724 8.68412C12.6724 7.62127 12.9016 6.68346 13.3601 5.87069C13.8309 5.05792 14.4691 4.43272 15.2745 3.99507C16.0799 3.54492 16.9783 3.31985 17.9696 3.31985C18.9609 3.31985 19.8592 3.54492 20.6646 3.99507C21.4701 4.43272 22.102 5.05792 22.5605 5.87069C23.0313 6.68346 23.2668 7.62127 23.2668 8.68412C23.2668 9.74697 23.0252 10.6848 22.5419 11.4976C22.071 12.3103 21.4267 12.9418 20.6089 13.3919C19.8035 13.8296 18.8989 14.0484 17.8952 14.0484ZM17.8952 11.7601C18.3661 11.7601 18.806 11.6476 19.2149 11.4225C19.6362 11.1849 19.9707 10.8348 20.2186 10.3722C20.4664 9.90953 20.5903 9.34684 20.5903 8.68412C20.5903 7.69629 20.3301 6.93979 19.8097 6.41462C19.3016 5.87694 18.6759 5.6081 17.9324 5.6081C17.1889 5.6081 16.5632 5.87694 16.0551 6.41462C15.5595 6.93979 15.3117 7.69629 15.3117 8.68412C15.3117 9.67195 15.5533 10.4347 16.0366 10.9724C16.5322 11.4976 17.1518 11.7601 17.8952 11.7601Z" fill="#D5A6BB"/>
<path d="M34.8964 3.48865V13.8796H32.2757V12.5667C31.9411 13.0168 31.5012 13.3732 30.956 13.6358C30.4232 13.8858 29.8408 14.0109 29.2089 14.0109C28.4034 14.0109 27.691 13.8421 27.0714 13.5045C26.4518 13.1543 25.9624 12.6479 25.603 11.9852C25.2561 11.31 25.0826 10.5097 25.0826 9.58442V3.48865H27.6848V9.2093C27.6848 10.0346 27.8892 10.6723 28.2981 11.1224C28.707 11.5601 29.2646 11.7789 29.9709 11.7789C30.6896 11.7789 31.2534 11.5601 31.6623 11.1224C32.0712 10.6723 32.2757 10.0346 32.2757 9.2093V3.48865H34.8964Z" fill="#D5A6BB"/>
<path d="M40.066 5.10169C40.4005 4.5515 40.8342 4.12011 41.367 3.80751C41.9123 3.49491 42.5318 3.3386 43.2257 3.3386V6.09577H42.538C41.7202 6.09577 41.1006 6.28958 40.6793 6.67721C40.2704 7.06484 40.066 7.74006 40.066 8.70288V13.8796H37.4638V3.48865H40.066V5.10169Z" fill="#D5A6BB"/>
<path d="M49.0117 3.31985C49.7799 3.31985 50.4553 3.47615 51.0376 3.78875C51.62 4.08885 52.0785 4.48273 52.4131 4.97039V3.48865H55.0338V13.9546C55.0338 14.9174 54.8417 15.774 54.4576 16.5242C54.0735 17.287 53.4973 17.8872 52.729 18.3248C51.9608 18.775 51.0314 19 49.941 19C48.4789 19 47.2769 18.6562 46.3352 17.9684C45.4059 17.2807 44.8793 16.3429 44.7553 15.155H47.3389C47.4752 15.6302 47.7664 16.0053 48.2125 16.2804C48.6709 16.568 49.2223 16.7118 49.8667 16.7118C50.6225 16.7118 51.2359 16.4804 51.7068 16.0178C52.1776 15.5676 52.4131 14.8799 52.4131 13.9546V12.3416C52.0785 12.8292 51.6138 13.2356 51.0191 13.5607C50.4367 13.8858 49.7676 14.0484 49.0117 14.0484C48.1443 14.0484 47.3513 13.8233 46.6326 13.3732C45.9139 12.923 45.3439 12.2916 44.9226 11.4788C44.5137 10.6535 44.3093 9.70946 44.3093 8.64661C44.3093 7.59626 44.5137 6.6647 44.9226 5.85193C45.3439 5.03917 45.9077 4.41396 46.614 3.97631C47.3327 3.53867 48.1319 3.31985 49.0117 3.31985ZM52.4131 8.68412C52.4131 8.04641 52.2892 7.50248 52.0413 7.05233C51.7935 6.58968 51.4589 6.23956 51.0376 6.00198C50.6163 5.7519 50.1641 5.62686 49.6808 5.62686C49.1976 5.62686 48.7515 5.74565 48.3426 5.98323C47.9337 6.22081 47.5991 6.57092 47.3389 7.03358C47.0911 7.48372 46.9672 8.0214 46.9672 8.64661C46.9672 9.27182 47.0911 9.822 47.3389 10.2972C47.5991 10.7598 47.9337 11.1162 48.3426 11.3663C48.7639 11.6163 49.21 11.7414 49.6808 11.7414C50.1641 11.7414 50.6163 11.6226 51.0376 11.385C51.4589 11.1349 51.7935 10.7848 52.0413 10.3347C52.2892 9.87201 52.4131 9.32183 52.4131 8.68412Z" fill="#D5A6BB"/>
<path d="M60.1774 0V13.8796H57.5752V0H60.1774Z" fill="#D5A6BB"/>
<path d="M62.0792 8.64661C62.0792 7.59626 62.2836 6.6647 62.6925 5.85193C63.1138 5.03917 63.6776 4.41396 64.3839 3.97631C65.1026 3.53867 65.9018 3.31985 66.7816 3.31985C67.5499 3.31985 68.219 3.47615 68.789 3.78875C69.3713 4.10136 69.836 4.49524 70.183 4.97039V3.48865H72.8037V13.8796H70.183V12.3603C69.8484 12.848 69.3837 13.2544 68.789 13.5795C68.2066 13.8921 67.5313 14.0484 66.763 14.0484C65.8956 14.0484 65.1026 13.8233 64.3839 13.3732C63.6776 12.923 63.1138 12.2916 62.6925 11.4788C62.2836 10.6535 62.0792 9.70946 62.0792 8.64661ZM70.183 8.68412C70.183 8.04641 70.0591 7.50248 69.8112 7.05233C69.5634 6.58968 69.2289 6.23956 68.8076 6.00198C68.3863 5.7519 67.934 5.62686 67.4507 5.62686C66.9675 5.62686 66.5214 5.74565 66.1125 5.98323C65.7036 6.22081 65.369 6.57092 65.1088 7.03358C64.861 7.48372 64.7371 8.0214 64.7371 8.64661C64.7371 9.27182 64.861 9.822 65.1088 10.2972C65.369 10.7598 65.7036 11.1162 66.1125 11.3663C66.5338 11.6163 66.9799 11.7414 67.4507 11.7414C67.934 11.7414 68.3863 11.6226 68.8076 11.385C69.2289 11.1349 69.5634 10.7848 69.8112 10.3347C70.0591 9.87201 70.183 9.32183 70.183 8.68412Z" fill="#D5A6BB"/>
<path d="M79.2855 14.0484C78.4429 14.0484 77.6871 13.8983 77.0179 13.5982C76.3488 13.2856 75.816 12.8668 75.4195 12.3416C75.0354 11.8164 74.8247 11.235 74.7875 10.5973H77.4083C77.4578 10.9974 77.6499 11.3287 77.9844 11.5913C78.3314 11.8539 78.7589 11.9852 79.2669 11.9852C79.7626 11.9852 80.1467 11.8852 80.4193 11.6851C80.7043 11.485 80.8468 11.2287 80.8468 10.9161C80.8468 10.5785 80.6733 10.3284 80.3264 10.1659C79.9918 9.9908 79.4528 9.80324 78.7093 9.60317C77.9411 9.41561 77.3091 9.2218 76.8135 9.02173C76.3302 8.82167 75.9089 8.51532 75.5496 8.10268C75.2026 7.69004 75.0292 7.13361 75.0292 6.43338C75.0292 5.85819 75.1902 5.33301 75.5124 4.85786C75.847 4.3827 76.3178 4.00757 76.925 3.73248C77.5446 3.45739 78.2694 3.31985 79.0997 3.31985C80.3264 3.31985 81.3053 3.63245 82.0364 4.25766C82.7674 4.87036 83.1701 5.70189 83.2445 6.75223H80.7539C80.7167 6.3396 80.5432 6.01449 80.2334 5.77691C79.9361 5.52683 79.5333 5.40179 79.0253 5.40179C78.5544 5.40179 78.1889 5.48931 77.9287 5.66437C77.6809 5.83943 77.557 6.08326 77.557 6.39586C77.557 6.74598 77.7304 7.01482 78.0774 7.20238C78.4243 7.37744 78.9633 7.55875 79.6944 7.74631C80.4379 7.93387 81.0513 8.12769 81.5345 8.32775C82.0178 8.52782 82.4329 8.84042 82.7798 9.26556C83.1392 9.6782 83.325 10.2284 83.3374 10.9161C83.3374 11.5163 83.1701 12.054 82.8356 12.5291C82.5134 13.0043 82.0425 13.3794 81.423 13.6545C80.8158 13.9171 80.1033 14.0484 79.2855 14.0484Z" fill="#D5A6BB"/>
<path d="M89.4138 14.0484C88.5712 14.0484 87.8154 13.8983 87.1462 13.5982C86.4771 13.2856 85.9443 12.8668 85.5478 12.3416C85.1637 11.8164 84.953 11.235 84.9158 10.5973H87.5366C87.5861 10.9974 87.7782 11.3287 88.1128 11.5913C88.4597 11.8539 88.8872 11.9852 89.3952 11.9852C89.8909 11.9852 90.275 11.8852 90.5476 11.6851C90.8326 11.485 90.9751 11.2287 90.9751 10.9161C90.9751 10.5785 90.8016 10.3284 90.4547 10.1659C90.1201 9.9908 89.5811 9.80324 88.8376 9.60317C88.0694 9.41561 87.4374 9.2218 86.9418 9.02173C86.4585 8.82167 86.0372 8.51532 85.6779 8.10268C85.3309 7.69004 85.1575 7.13361 85.1575 6.43338C85.1575 5.85819 85.3186 5.33301 85.6407 4.85786C85.9753 4.3827 86.4461 4.00757 87.0533 3.73248C87.6729 3.45739 88.3977 3.31985 89.2279 3.31985C90.4547 3.31985 91.4336 3.63245 92.1646 4.25766C92.8957 4.87036 93.2984 5.70189 93.3728 6.75223H90.8822C90.845 6.3396 90.6715 6.01449 90.3617 5.77691C90.0644 5.52683 89.6616 5.40179 89.1536 5.40179C88.6827 5.40179 88.3172 5.48931 88.057 5.66437C87.8092 5.83943 87.6853 6.08326 87.6853 6.39586C87.6853 6.74598 87.8587 7.01482 88.2057 7.20238C88.5526 7.37744 89.0916 7.55875 89.8227 7.74631C90.5662 7.93387 91.1796 8.12769 91.6628 8.32775C92.1461 8.52782 92.5612 8.84042 92.9081 9.26556C93.2675 9.6782 93.4533 10.2284 93.4657 10.9161C93.4657 11.5163 93.2984 12.054 92.9639 12.5291C92.6417 13.0043 92.1708 13.3794 91.5513 13.6545C90.9441 13.9171 90.2316 14.0484 89.4138 14.0484Z" fill="#D5A6BB"/>
</svg>
