<svg width="30" height="30" viewBox="0 0 30 30" fill="none" xmlns="http://www.w3.org/2000/svg">
<path d="M14.8644 0C6.655 0 0 6.71572 0 15C0 23.2842 6.655 30 14.8644 30C22.2298 30 28.3439 24.5942 29.5233 17.5H29.4167C28.3166 21.813 24.4367 25 19.8192 25C14.3463 25 9.90962 20.5228 9.90962 15C9.90962 9.47713 14.3463 4.99999 19.8192 4.99999C24.4367 4.99999 28.3166 8.18691 29.4167 12.5H29.5233C28.3439 5.40571 22.2298 0 14.8644 0Z" fill="#FFE8F2"/>
<path d="M0 15C0 6.71572 6.65503 0 14.8644 0C22.2298 0 28.3439 5.40571 29.5233 12.5H19.507C18.407 8.18692 14.5271 4.99999 9.90962 4.99999C4.43669 4.99999 0 9.47714 0 15Z" fill="#D5A6BB"/>
<path d="M0 15C0 23.2843 6.65503 30 14.8644 30C22.2298 30 28.3439 24.5943 29.5233 17.5H19.507C18.407 21.8131 14.5271 25 9.90962 25C4.43669 25 0 20.5229 0 15Z" fill="#D5A6BB"/>
</svg>
