<svg width="86" height="18" viewBox="0 0 86 18" fill="none" xmlns="http://www.w3.org/2000/svg">
<path d="M14.9001 16.1811C14.4785 16.7067 13.9638 17.1071 13.3562 17.3824C12.7609 17.6578 12.1037 17.7954 11.3844 17.7954C10.4171 17.7954 9.54279 17.5827 8.76151 17.1572C7.98022 16.7442 7.08733 16.0059 6.08283 14.9421C4.90471 14.792 3.8506 14.4103 2.9205 13.7971C2.00281 13.1839 1.28353 12.3955 0.762679 11.4319C0.254226 10.4557 0 9.37951 0 8.20316C0 6.91418 0.303831 5.75661 0.911494 4.73043C1.53156 3.69174 2.38105 2.8783 3.45996 2.29013C4.55127 1.70195 5.7728 1.40787 7.12454 1.40787C8.47628 1.40787 9.6916 1.70195 10.7705 2.29013C11.8494 2.8783 12.6989 3.69174 13.319 4.73043C13.939 5.75661 14.2491 6.91418 14.2491 8.20316C14.2491 9.72991 13.8212 11.069 12.9655 12.2203C12.1223 13.3716 10.9999 14.1725 9.59859 14.623C9.90862 14.9484 10.2063 15.1799 10.4915 15.3176C10.7891 15.4677 11.1053 15.5428 11.4402 15.5428C12.2463 15.5428 12.9531 15.2175 13.5608 14.5667L14.9001 16.1811ZM3.05071 8.20316C3.05071 9.0166 3.22433 9.74243 3.57157 10.3807C3.93121 11.0189 4.42106 11.5195 5.04112 11.8824C5.66118 12.2328 6.35566 12.408 7.12454 12.408C7.89342 12.408 8.58789 12.2328 9.20795 11.8824C9.82802 11.5195 10.3117 11.0189 10.6589 10.3807C11.0185 9.74243 11.1984 9.0166 11.1984 8.20316C11.1984 7.38973 11.0185 6.6639 10.6589 6.02566C10.3117 5.38743 9.82802 4.89312 9.20795 4.54271C8.58789 4.1798 7.89342 3.99834 7.12454 3.99834C6.35566 3.99834 5.66118 4.1798 5.04112 4.54271C4.42106 4.89312 3.93121 5.38743 3.57157 6.02566C3.22433 6.6639 3.05071 7.38973 3.05071 8.20316Z" fill="#D5A6BB"/>
<path d="M26.3915 4.67411V14.7732H23.6384V13.5718C23.254 14.0098 22.7951 14.3477 22.2618 14.5855C21.7286 14.8107 21.1519 14.9234 20.5319 14.9234C19.2173 14.9234 18.1756 14.5417 17.4067 13.7783C16.6379 13.0149 16.2534 11.8824 16.2534 10.3807V4.67411H19.1553V9.94892C19.1553 11.5758 19.8312 12.3892 21.1829 12.3892C21.8774 12.3892 22.4355 12.164 22.8571 11.7134C23.2788 11.2504 23.4896 10.5684 23.4896 9.66734V4.67411H26.3915Z" fill="#D5A6BB"/>
<path d="M33.842 14.9234C32.7879 14.9234 31.8392 14.7044 30.9959 14.2664C30.165 13.8159 29.5139 13.1964 29.0427 12.408C28.5714 11.6196 28.3358 10.7248 28.3358 9.72366C28.3358 8.72251 28.5714 7.82773 29.0427 7.03933C29.5139 6.25092 30.165 5.63772 30.9959 5.19972C31.8392 4.7492 32.7879 4.52394 33.842 4.52394C34.8961 4.52394 35.8386 4.7492 36.6695 5.19972C37.5004 5.63772 38.1514 6.25092 38.6227 7.03933C39.0939 7.82773 39.3295 8.72251 39.3295 9.72366C39.3295 10.7248 39.0939 11.6196 38.6227 12.408C38.1514 13.1964 37.5004 13.8159 36.6695 14.2664C35.8386 14.7044 34.8961 14.9234 33.842 14.9234ZM33.842 12.5206C34.5861 12.5206 35.1937 12.2703 35.665 11.7698C36.1486 11.2567 36.3904 10.5746 36.3904 9.72366C36.3904 8.87268 36.1486 8.19691 35.665 7.69633C35.1937 7.18324 34.5861 6.9267 33.842 6.9267C33.0979 6.9267 32.484 7.18324 32.0004 7.69633C31.5167 8.19691 31.2749 8.87268 31.2749 9.72366C31.2749 10.5746 31.5167 11.2567 32.0004 11.7698C32.484 12.2703 33.0979 12.5206 33.842 12.5206Z" fill="#D5A6BB"/>
<path d="M47.7241 14.2851C47.4389 14.4979 47.0854 14.6606 46.6638 14.7732C46.2545 14.8733 45.8205 14.9234 45.3617 14.9234C44.1711 14.9234 43.2472 14.6168 42.59 14.0036C41.9451 13.3904 41.6227 12.4893 41.6227 11.3005V7.15196H40.0787V4.89937H41.6227V2.4403H44.5246V4.89937H47.0172V7.15196H44.5246V11.2629C44.5246 11.6884 44.63 12.02 44.8408 12.2578C45.064 12.4831 45.3741 12.5957 45.7709 12.5957C46.2297 12.5957 46.6204 12.4706 46.9428 12.2203L47.7241 14.2851Z" fill="#D5A6BB"/>
<path d="M49.3531 4.67411H52.255V14.7732H49.3531V4.67411ZM50.804 3.26625C50.2708 3.26625 49.8367 3.10982 49.5019 2.79696C49.167 2.4841 48.9996 2.09616 48.9996 1.63312C48.9996 1.17009 49.167 0.782148 49.5019 0.469289C49.8367 0.15643 50.2708 0 50.804 0C51.3373 0 51.7713 0.150173 52.1062 0.450518C52.441 0.750862 52.6084 1.12629 52.6084 1.57681C52.6084 2.06487 52.441 2.47159 52.1062 2.79696C51.7713 3.10982 51.3373 3.26625 50.804 3.26625Z" fill="#D5A6BB"/>
<path d="M64.7514 9.7612C64.7514 9.79874 64.7328 10.0615 64.6956 10.5496H57.1246C57.261 11.1753 57.5835 11.6696 58.0919 12.0326C58.6004 12.3955 59.2328 12.5769 59.9893 12.5769C60.5102 12.5769 60.969 12.5018 61.3658 12.3517C61.7751 12.189 62.1533 11.9387 62.5006 11.6008L64.0445 13.2903C63.102 14.379 61.7255 14.9234 59.9149 14.9234C58.7864 14.9234 57.7881 14.7044 56.92 14.2664C56.0519 13.8159 55.3822 13.1964 54.911 12.408C54.4397 11.6196 54.2041 10.7248 54.2041 9.72366C54.2041 8.73502 54.4335 7.8465 54.8924 7.0581C55.3636 6.25718 56.0023 5.63772 56.8084 5.19972C57.6269 4.7492 58.5383 4.52394 59.5429 4.52394C60.5226 4.52394 61.4092 4.73669 62.2029 5.16217C62.9966 5.58766 63.6167 6.20087 64.0631 7.00178C64.522 7.79019 64.7514 8.71 64.7514 9.7612ZM59.5615 6.73898C58.9042 6.73898 58.3523 6.9267 57.9059 7.30213C57.4594 7.67756 57.1866 8.19065 57.0874 8.8414H62.0169C61.9177 8.20316 61.6449 7.69633 61.1984 7.3209C60.752 6.93296 60.2063 6.73898 59.5615 6.73898Z" fill="#D5A6BB"/>
<path d="M72.7662 4.52394C74.0063 4.52394 75.0046 4.89937 75.7611 5.65023C76.53 6.4011 76.9144 7.51487 76.9144 8.99157V14.7732H74.0125V9.44209C74.0125 8.64117 73.8389 8.04673 73.4917 7.65879C73.1444 7.25833 72.6422 7.0581 71.9849 7.0581C71.2532 7.0581 70.6704 7.28961 70.2363 7.75265C69.8023 8.20316 69.5853 8.87894 69.5853 9.77997V14.7732H66.6834V4.67411H69.4551V5.85672C69.8395 5.43123 70.317 5.10586 70.8874 4.8806C71.4579 4.64283 72.0841 4.52394 72.7662 4.52394Z" fill="#D5A6BB"/>
<path d="M85.9997 14.2851C85.7145 14.4979 85.3611 14.6606 84.9394 14.7732C84.5302 14.8733 84.0961 14.9234 83.6373 14.9234C82.4468 14.9234 81.5229 14.6168 80.8656 14.0036C80.2207 13.3904 79.8983 12.4893 79.8983 11.3005V7.15196H78.3543V4.89937H79.8983V2.4403H82.8002V4.89937H85.2929V7.15196H82.8002V11.2629C82.8002 11.6884 82.9056 12.02 83.1164 12.2578C83.3397 12.4831 83.6497 12.5957 84.0465 12.5957C84.5054 12.5957 84.896 12.4706 85.2185 12.2203L85.9997 14.2851Z" fill="#D5A6BB"/>
</svg>
