<svg width="68" height="18" viewBox="0 0 68 18" fill="none" xmlns="http://www.w3.org/2000/svg">
<path d="M11.9524 4.80453C11.5353 1.76411 9.21762 0 6.2113 0C2.66861 0 0 2.60607 0 7.02972C0 11.4467 2.6355 14.0594 6.2113 14.0594C9.43614 14.0594 11.575 11.9545 11.9524 9.34177L9.47588 9.32841C9.16465 10.9321 7.86677 11.8342 6.24441 11.8342C4.04595 11.8342 2.46995 10.1704 2.46995 7.02972C2.46995 3.94252 4.03271 2.22519 6.25103 2.22519C7.89987 2.22519 9.19114 3.16738 9.47588 4.80453H11.9524Z" fill="#D5A6BB"/>
<path d="M17.0231 14.0795C18.619 14.0795 19.5725 13.3244 20.0096 12.4624H20.0891V13.8723H22.3935V7.00299C22.3935 4.29 20.2016 3.47477 18.2614 3.47477C16.1226 3.47477 14.4803 4.43701 13.9506 6.30804L16.1888 6.62878C16.4272 5.92715 17.1026 5.32575 18.2747 5.32575C19.3871 5.32575 19.9963 5.90042 19.9963 6.90944V6.94953C19.9963 7.64448 19.2746 7.67789 17.48 7.87168C15.5067 8.08551 13.6195 8.68023 13.6195 10.9923C13.6195 13.0103 15.0829 14.0795 17.0231 14.0795ZM17.6456 12.302C16.6457 12.302 15.9305 11.8409 15.9305 10.9522C15.9305 10.0234 16.7318 9.63579 17.8045 9.4821C18.4336 9.39523 19.6917 9.23486 20.003 8.98093V10.1904C20.003 11.3331 19.0892 12.302 17.6456 12.302Z" fill="#D5A6BB"/>
<path d="M29.8828 3.60841H27.8764V1.14935H25.4792V3.60841H24.0357V5.47944H25.4792V11.1861C25.466 13.1172 26.8566 14.0661 28.6577 14.0127C29.3398 13.9926 29.8099 13.859 30.0682 13.7721L29.6643 11.881C29.5318 11.9144 29.2603 11.9746 28.9623 11.9746C28.3598 11.9746 27.8764 11.7607 27.8764 10.7851V5.47944H29.8828V3.60841Z" fill="#D5A6BB"/>
<path d="M34.8144 14.0795C36.4103 14.0795 37.3638 13.3244 37.8009 12.4624H37.8803V13.8723H40.1847V7.00299C40.1847 4.29 37.9929 3.47477 36.0527 3.47477C33.9138 3.47477 32.2716 4.43701 31.7419 6.30804L33.9801 6.62878C34.2184 5.92715 34.8939 5.32575 36.0659 5.32575C37.1784 5.32575 37.7876 5.90042 37.7876 6.90944V6.94953C37.7876 7.64448 37.0658 7.67789 35.2713 7.87168C33.298 8.08551 31.4108 8.68023 31.4108 10.9923C31.4108 13.0103 32.8742 14.0795 34.8144 14.0795ZM35.4369 12.302C34.437 12.302 33.7218 11.8409 33.7218 10.9522C33.7218 10.0234 34.523 9.63579 35.5958 9.4821C36.2249 9.39523 37.483 9.23486 37.7942 8.98093V10.1904C37.7942 11.3331 36.8804 12.302 35.4369 12.302Z" fill="#D5A6BB"/>
<path d="M44.9922 0.187103H42.5951V13.8723H44.9922V0.187103Z" fill="#D5A6BB"/>
<path d="M51.8938 14.0728C54.8737 14.0728 56.7675 11.9545 56.7675 8.78046C56.7675 5.59972 54.8737 3.47477 51.8938 3.47477C48.914 3.47477 47.0201 5.59972 47.0201 8.78046C47.0201 11.9545 48.914 14.0728 51.8938 14.0728ZM51.9071 12.1349C50.2582 12.1349 49.4504 10.6515 49.4504 8.77378C49.4504 6.89607 50.2582 5.39257 51.9071 5.39257C53.5294 5.39257 54.3373 6.89607 54.3373 8.77378C54.3373 10.6515 53.5294 12.1349 51.9071 12.1349Z" fill="#D5A6BB"/>
<path d="M63.2255 17.9351C65.9736 17.9351 67.9998 16.6655 67.9998 14.0394V3.60841H65.6358V5.3057H65.5034C65.1392 4.56397 64.3777 3.47477 62.5832 3.47477C60.2324 3.47477 58.3849 5.33243 58.3849 8.70696C58.3849 12.0548 60.2324 13.7253 62.5765 13.7253C64.3181 13.7253 65.1326 12.7831 65.5034 12.028H65.6226V13.9726C65.6226 15.4828 64.6293 16.1042 63.2652 16.1042C61.8216 16.1042 61.1859 15.4159 60.8946 14.8145L58.7359 15.3424C59.1729 16.7791 60.6363 17.9351 63.2255 17.9351ZM63.2453 11.8276C61.6627 11.8276 60.8284 10.5847 60.8284 8.6936C60.8284 6.82925 61.6495 5.45939 63.2453 5.45939C64.7882 5.45939 65.6358 6.74906 65.6358 8.6936C65.6358 10.6515 64.775 11.8276 63.2453 11.8276Z" fill="#D5A6BB"/>
</svg>
