<svg width="84" height="19" viewBox="0 0 84 19" fill="none" xmlns="http://www.w3.org/2000/svg">
<path d="M5.1454 14.7116C4.13869 14.7116 3.16306 14.5674 2.21849 14.2789C1.28635 13.9904 0.546855 13.6079 0 13.1313L0.838925 11.2312C1.37335 11.6576 2.02585 12.0088 2.79642 12.2847C3.57941 12.5481 4.36241 12.6798 5.1454 12.6798C6.11483 12.6798 6.83568 12.523 7.30797 12.2095C7.79268 11.8959 8.03503 11.4821 8.03503 10.9678C8.03503 10.5916 7.89832 10.2843 7.62489 10.046C7.36389 9.79518 7.02832 9.60078 6.61818 9.46282C6.20804 9.32486 5.64876 9.16809 4.94033 8.9925C3.94605 8.75421 3.1382 8.51591 2.51677 8.27762C1.90778 8.03932 1.37957 7.66934 0.932139 7.16766C0.497141 6.65345 0.279642 5.96365 0.279642 5.09826C0.279642 4.37083 0.472284 3.71239 0.857567 3.12292C1.25528 2.52091 1.84563 2.04432 2.62863 1.69315C3.42406 1.34198 4.39348 1.16639 5.5369 1.16639C6.33233 1.16639 7.11532 1.26673 7.88589 1.4674C8.65646 1.66807 9.32139 1.95653 9.88067 2.33278L9.11632 4.23287C8.5446 3.89424 7.94803 3.63714 7.32661 3.46155C6.70518 3.28596 6.1024 3.19817 5.51826 3.19817C4.56126 3.19817 3.84663 3.36121 3.37434 3.6873C2.91449 4.01339 2.68456 4.44608 2.68456 4.98538C2.68456 5.36164 2.81506 5.66891 3.07606 5.90721C3.34948 6.1455 3.69127 6.33363 4.10141 6.47159C4.51155 6.60955 5.07083 6.76633 5.77926 6.94191C6.74868 7.16767 7.54411 7.40596 8.16553 7.6568C8.78696 7.89509 9.31517 8.26508 9.75017 8.76675C10.1976 9.26842 10.4213 9.94568 10.4213 10.7985C10.4213 11.526 10.2225 12.1844 9.82474 12.7739C9.43946 13.3633 8.8491 13.8337 8.05368 14.1848C7.25825 14.536 6.28883 14.7116 5.1454 14.7116Z" fill="#D5A6BB"/>
<path d="M12.6008 4.47744H14.9311V14.5235H12.6008V4.47744ZM13.7753 2.82191C13.3527 2.82191 12.9985 2.69023 12.7126 2.42685C12.4268 2.15093 12.2838 1.8123 12.2838 1.41096C12.2838 1.00962 12.4268 0.677259 12.7126 0.41388C12.9985 0.13796 13.3527 0 13.7753 0C14.1978 0 14.552 0.131689 14.8379 0.395068C15.1238 0.645905 15.2667 0.965722 15.2667 1.35452C15.2667 1.7684 15.1238 2.11957 14.8379 2.40803C14.5645 2.68395 14.2103 2.82191 13.7753 2.82191Z" fill="#D5A6BB"/>
<path d="M21.0657 14.6551C20.2579 14.6551 19.4687 14.5485 18.6981 14.3353C17.9275 14.1221 17.3123 13.8525 16.8525 13.5264L17.7473 11.7392C18.1948 12.0402 18.7292 12.2847 19.3506 12.4729C19.9845 12.6485 20.6059 12.7362 21.2149 12.7362C22.6069 12.7362 23.3029 12.3663 23.3029 11.6263C23.3029 11.2751 23.1227 11.0306 22.7622 10.8926C22.4142 10.7546 21.8487 10.6229 21.0657 10.4975C20.2455 10.3721 19.5743 10.2279 19.0523 10.0648C18.5428 9.90179 18.0953 9.6196 17.71 9.21826C17.3372 8.80438 17.1508 8.23372 17.1508 7.50629C17.1508 6.55311 17.5423 5.79433 18.3253 5.22995C19.1207 4.65302 20.1895 4.36456 21.5318 4.36456C22.2154 4.36456 22.899 4.44608 23.5825 4.60913C24.2661 4.75963 24.8254 4.96657 25.2604 5.22995L24.3655 7.01716C23.5204 6.51549 22.5696 6.26465 21.5132 6.26465C20.8296 6.26465 20.3076 6.37126 19.9472 6.58447C19.5992 6.78514 19.4252 7.05479 19.4252 7.39342C19.4252 7.76967 19.6116 8.03932 19.9845 8.20237C20.3698 8.35287 20.9601 8.4971 21.7555 8.63506C22.551 8.76048 23.2035 8.90471 23.713 9.06775C24.2226 9.2308 24.6576 9.50672 25.018 9.89552C25.3909 10.2843 25.5773 10.8362 25.5773 11.551C25.5773 12.4917 25.1734 13.2442 24.3655 13.8086C23.5577 14.373 22.4577 14.6551 21.0657 14.6551Z" fill="#D5A6BB"/>
<path d="M36.7235 4.47744L32.0628 15.3324C31.6278 16.4235 31.0996 17.1886 30.4782 17.6276C29.8567 18.0791 29.1048 18.3048 28.2224 18.3048C27.7252 18.3048 27.2343 18.2233 26.7496 18.0603C26.2649 17.8972 25.8672 17.6715 25.5565 17.383L26.4886 15.6522C26.7123 15.8654 26.9733 16.0348 27.2716 16.1602C27.5823 16.2856 27.893 16.3483 28.2037 16.3483C28.6139 16.3483 28.9495 16.2417 29.2105 16.0285C29.4839 15.8153 29.7325 15.4578 29.9562 14.9562L30.1239 14.5611L25.7802 4.47744H28.2037L31.3357 11.9085L34.4864 4.47744H36.7235Z" fill="#D5A6BB"/>
<path d="M43.6982 4.36456C44.6676 4.36456 45.5314 4.57777 46.2896 5.0042C47.0601 5.43062 47.6629 6.03263 48.0979 6.81022C48.5329 7.58782 48.7504 8.48456 48.7504 9.50045C48.7504 10.5163 48.5329 11.4194 48.0979 12.2095C47.6629 12.9871 47.0601 13.5891 46.2896 14.0155C45.5314 14.4419 44.6676 14.6551 43.6982 14.6551C42.3559 14.6551 41.2933 14.2036 40.5103 13.3006V18.1731H38.18V4.47744H40.3984V5.79433C40.7837 5.31774 41.256 4.9603 41.8153 4.722C42.387 4.48371 43.0146 4.36456 43.6982 4.36456ZM43.4372 12.6422C44.2948 12.6422 44.997 12.3537 45.5438 11.7768C46.1031 11.1999 46.3828 10.4411 46.3828 9.50045C46.3828 8.55981 46.1031 7.80103 45.5438 7.2241C44.997 6.64718 44.2948 6.35872 43.4372 6.35872C42.8779 6.35872 42.3746 6.49041 41.9272 6.75378C41.4797 7.00462 41.1255 7.36833 40.8645 7.84492C40.6035 8.32152 40.473 8.87336 40.473 9.50045C40.473 10.1275 40.6035 10.6794 40.8645 11.156C41.1255 11.6326 41.4797 12.0025 41.9272 12.2659C42.3746 12.5168 42.8779 12.6422 43.4372 12.6422Z" fill="#D5A6BB"/>
<path d="M56.6092 4.36456C57.8645 4.36456 58.8712 4.73455 59.6293 5.47451C60.3875 6.21448 60.7665 7.3119 60.7665 8.76675V14.5235H58.4362V9.06775C58.4362 8.18982 58.2311 7.53138 57.821 7.09241C57.4108 6.64091 56.8267 6.41515 56.0686 6.41515C55.211 6.41515 54.5336 6.67853 54.0365 7.20529C53.5394 7.71951 53.2908 8.46575 53.2908 9.44401V14.5235H50.9604V0.564383H53.2908V5.64383C53.6761 5.22995 54.1484 4.9164 54.7076 4.70319C55.2794 4.47744 55.9132 4.36456 56.6092 4.36456Z" fill="#D5A6BB"/>
<path d="M73.3611 4.47744V14.5235H71.1426V13.2442C70.7697 13.6957 70.3036 14.0469 69.7443 14.2977C69.1851 14.536 68.5823 14.6551 67.936 14.6551C66.6061 14.6551 65.5559 14.2852 64.7854 13.5452C64.0272 12.7927 63.6482 11.6827 63.6482 10.2153V4.47744H65.9785V9.89552C65.9785 10.7985 66.1774 11.4758 66.5751 11.9273C66.9852 12.3663 67.5631 12.5857 68.3089 12.5857C69.1416 12.5857 69.8003 12.3286 70.285 11.8144C70.7821 11.2877 71.0307 10.5352 71.0307 9.55689V4.47744H73.3611Z" fill="#D5A6BB"/>
<path d="M79.4883 14.6551C78.6804 14.6551 77.8912 14.5485 77.1206 14.3353C76.3501 14.1221 75.7348 13.8525 75.275 13.5264L76.1698 11.7392C76.6173 12.0402 77.1517 12.2847 77.7731 12.4729C78.407 12.6485 79.0284 12.7362 79.6374 12.7362C81.0294 12.7362 81.7254 12.3663 81.7254 11.6263C81.7254 11.2751 81.5452 11.0306 81.1847 10.8926C80.8367 10.7546 80.2713 10.6229 79.4883 10.4975C78.668 10.3721 77.9968 10.2279 77.4748 10.0648C76.9653 9.90179 76.5178 9.6196 76.1326 9.21826C75.7597 8.80438 75.5733 8.23372 75.5733 7.50629C75.5733 6.55311 75.9648 5.79433 76.7478 5.22995C77.5432 4.65302 78.612 4.36456 79.9543 4.36456C80.6379 4.36456 81.3215 4.44608 82.005 4.60913C82.6886 4.75963 83.2479 4.96657 83.6829 5.22995L82.788 7.01716C81.9429 6.51549 80.9921 6.26465 79.9357 6.26465C79.2521 6.26465 78.7301 6.37126 78.3697 6.58447C78.0217 6.78514 77.8477 7.05479 77.8477 7.39342C77.8477 7.76967 78.0341 8.03932 78.407 8.20237C78.7923 8.35287 79.3826 8.4971 80.178 8.63506C80.9735 8.76048 81.626 8.90471 82.1355 9.06775C82.6451 9.2308 83.0801 9.50672 83.4405 9.89552C83.8134 10.2843 83.9998 10.8362 83.9998 11.551C83.9998 12.4917 83.5959 13.2442 82.788 13.8086C81.9802 14.373 80.8802 14.6551 79.4883 14.6551Z" fill="#D5A6BB"/>
</svg>
