<svg width="58" height="18" viewBox="0 0 58 18" fill="none" xmlns="http://www.w3.org/2000/svg">
<path d="M2.12188 11.326H6.49594V13.054H0V0H2.12188V11.326Z" fill="#D5A6BB"/>
<path d="M7.56313 7.8324C7.56313 6.79309 7.77408 5.87273 8.19597 5.07134C8.63028 4.26994 9.21349 3.65011 9.9456 3.21185C10.6901 2.76106 11.5091 2.53567 12.4025 2.53567C13.2091 2.53567 13.9102 2.69845 14.5058 3.02402C15.1138 3.33707 15.5977 3.7315 15.9576 4.20733V2.70471H18.0981V13.054H15.9576V11.5138C15.5977 12.0022 15.1076 12.4091 14.4872 12.7347C13.8667 13.0603 13.1594 13.223 12.3653 13.223C11.4843 13.223 10.6777 12.9976 9.9456 12.5469C9.21349 12.0836 8.63028 11.4449 8.19597 10.631C7.77408 9.80459 7.56313 8.87171 7.56313 7.8324ZM15.9576 7.86996C15.9576 7.15622 15.8087 6.53639 15.5109 6.01047C15.2255 5.48456 14.847 5.08386 14.3755 4.80838C13.904 4.5329 13.3952 4.39516 12.8492 4.39516C12.3032 4.39516 11.7945 4.5329 11.323 4.80838C10.8514 5.07134 10.4668 5.46578 10.169 5.99169C9.88355 6.50509 9.74085 7.11866 9.74085 7.8324C9.74085 8.54614 9.88355 9.17223 10.169 9.71067C10.4668 10.2491 10.8514 10.6623 11.323 10.9503C11.8069 11.2258 12.3157 11.3636 12.8492 11.3636C13.3952 11.3636 13.904 11.2258 14.3755 10.9503C14.847 10.6749 15.2255 10.2742 15.5109 9.74824C15.8087 9.2098 15.9576 8.58371 15.9576 7.86996Z" fill="#D5A6BB"/>
<path d="M30.1172 2.70471L23.826 17.9187H21.6296L23.7143 12.885L19.6753 2.70471H22.0391L24.9241 10.5935L27.9208 2.70471H30.1172Z" fill="#D5A6BB"/>
<path d="M41.118 7.62579C41.118 8.01397 41.0932 8.36458 41.0436 8.67762H33.2075C33.2695 9.50406 33.5735 10.1677 34.1195 10.6686C34.6655 11.1695 35.3356 11.4199 36.1297 11.4199C37.2713 11.4199 38.0779 10.9378 38.5494 9.97363H40.8388C40.5286 10.9253 39.964 11.7079 39.145 12.3215C38.3385 12.9225 37.3334 13.223 36.1297 13.223C35.1494 13.223 34.2684 13.0039 33.4867 12.5656C32.7173 12.1149 32.1093 11.4888 31.6626 10.6874C31.2283 9.87346 31.0112 8.93432 31.0112 7.86996C31.0112 6.80561 31.2221 5.87273 31.644 5.07134C32.0783 4.25742 32.6801 3.63133 33.4495 3.19306C34.2312 2.7548 35.1246 2.53567 36.1297 2.53567C37.0976 2.53567 37.96 2.74854 38.7169 3.17428C39.4739 3.60002 40.0633 4.20107 40.4852 4.97742C40.9071 5.74125 41.118 6.62404 41.118 7.62579ZM38.9031 6.94961C38.8907 6.16074 38.6115 5.52838 38.0655 5.05255C37.5195 4.57673 36.8432 4.33881 36.0367 4.33881C35.3046 4.33881 34.6779 4.57673 34.1568 5.05255C33.6356 5.51586 33.3254 6.14821 33.2261 6.94961H38.9031Z" fill="#D5A6BB"/>
<path d="M45.328 4.20733C45.6383 3.68142 46.0478 3.27446 46.5565 2.98645C47.0777 2.68593 47.6919 2.53567 48.3992 2.53567V4.75203H47.8594C47.028 4.75203 46.3952 4.9649 45.9609 5.39064C45.539 5.81639 45.328 6.55517 45.328 7.60701V13.054H43.2062V2.70471H45.328V4.20733Z" fill="#D5A6BB"/>
<path d="M54.0722 13.223C53.2657 13.223 52.5398 13.079 51.8945 12.791C51.2617 12.4905 50.7591 12.0898 50.3869 11.5889C50.0146 11.0756 49.8161 10.5058 49.7912 9.87972H51.9876C52.0248 10.318 52.2295 10.6874 52.6018 10.9879C52.9865 11.2759 53.4642 11.4199 54.035 11.4199C54.6306 11.4199 55.0897 11.3072 55.4124 11.0818C55.7474 10.8439 55.9149 10.5434 55.9149 10.1802C55.9149 9.79206 55.7288 9.50406 55.3565 9.31623C54.9967 9.12841 54.4197 8.9218 53.6255 8.6964C52.8562 8.48353 52.2295 8.27692 51.7456 8.07657C51.2617 7.87623 50.8398 7.56944 50.4799 7.15622C50.1325 6.743 49.9588 6.1983 49.9588 5.52212C49.9588 4.97116 50.1201 4.47029 50.4427 4.0195C50.7653 3.5562 51.2244 3.19306 51.8201 2.93011C52.4281 2.66715 53.123 2.53567 53.9047 2.53567C55.0711 2.53567 56.008 2.83619 56.7153 3.43724C57.435 4.02577 57.8197 4.83342 57.8693 5.86021H55.7474C55.7102 5.3969 55.524 5.02751 55.189 4.75203C54.854 4.47655 54.4011 4.33881 53.8303 4.33881C53.2719 4.33881 52.8438 4.44525 52.546 4.65812C52.2482 4.87099 52.0993 5.15273 52.0993 5.50334C52.0993 5.77882 52.1985 6.01047 52.3971 6.1983C52.5956 6.38613 52.8376 6.53639 53.123 6.64909C53.4084 6.74926 53.8303 6.88074 54.3887 7.04352C55.1332 7.24387 55.7412 7.45048 56.2127 7.66335C56.6967 7.8637 57.1124 8.16423 57.4598 8.56493C57.8072 8.96562 57.9872 9.4978 57.9996 10.1615C57.9996 10.75 57.8383 11.2759 57.5156 11.7392C57.193 12.2025 56.7339 12.5656 56.1383 12.8286C55.5551 13.0916 54.8664 13.223 54.0722 13.223Z" fill="#D5A6BB"/>
</svg>
