<svg width="26" height="30" viewBox="0 0 26 30" fill="none" xmlns="http://www.w3.org/2000/svg">
<path d="M22.5877 14.8006C20.218 17.4723 16.7744 19.1537 12.9416 19.1537C9.10875 19.1537 5.66511 17.4723 3.29546 14.8006C5.66511 12.1289 9.10875 10.4475 12.9416 10.4475C16.7744 10.4475 20.218 12.1289 22.5877 14.8006Z" fill="white"/>
<path fill-rule="evenodd" clip-rule="evenodd" d="M0 23.5069C0 16.2944 5.79405 10.4475 12.9414 10.4475C9.10857 10.4475 5.66496 12.1289 3.2953 14.8006C5.66496 17.4723 9.1086 19.1537 12.9414 19.1537C16.7742 19.1537 20.2178 17.4723 22.5875 14.8006C24.6367 17.1111 25.8828 20.1621 25.8828 23.5069V28.4404C25.8828 29.0815 25.3677 29.6012 24.7324 29.6012H1.15034C0.515027 29.6012 0 29.0815 0 28.4404V23.5069ZM22.5875 14.8006C22.5875 14.8006 22.5875 14.8006 22.5875 14.8006V14.8006Z" fill="#FFE8F2"/>
<path fill-rule="evenodd" clip-rule="evenodd" d="M8.08722 18.204C6.23937 17.449 4.60364 16.2758 3.2953 14.8006C5.66496 12.1289 9.1086 10.4475 12.9414 10.4475C16.7742 10.4475 20.2178 12.1289 22.5875 14.8006C22.5875 14.8006 22.5875 14.8006 22.5875 14.8006C24.6367 12.4902 25.8828 9.43912 25.8828 6.09438V1.16084C25.8828 0.519726 25.3677 2.18189e-06 24.7324 2.18189e-06L1.15035 0C0.515028 -5.60474e-08 4.82948e-07 0.519724 4.27407e-07 1.16083L0 6.09438C-8.59641e-07 11.5746 3.34508 16.2664 8.08722 18.204Z" fill="#D5A6BB"/>
</svg>
