<svg width="83" height="14" viewBox="0 0 83 14" fill="none" xmlns="http://www.w3.org/2000/svg">
<path d="M11.0837 10.0439C10.713 11.2534 10.0643 12.1574 9.13757 12.7559C8.21084 13.3419 7.12965 13.635 5.89401 13.635C4.68308 13.635 3.63279 13.3793 2.74312 12.8681C1.86582 12.3569 1.18622 11.6274 0.704316 10.6798C0.234772 9.73213 0 8.59744 0 7.27572C0 5.95399 0.24095 4.8193 0.72285 3.87165C1.20475 2.924 1.88435 2.19456 2.76166 1.68333C3.63896 1.1721 4.67072 0.916479 5.85694 0.916479C7.10494 0.916479 8.17377 1.18456 9.06343 1.72073C9.96545 2.24444 10.5833 3.04246 10.9169 4.1148L8.60006 5.10609C8.39001 4.35795 8.06874 3.82801 7.63626 3.51628C7.20379 3.19209 6.64775 3.02999 5.96815 3.02999C4.95492 3.02999 4.14558 3.39783 3.54011 4.1335C2.94701 4.85671 2.65045 5.90412 2.65045 7.27572C2.65045 8.63485 2.93465 9.68225 3.50304 10.4179C4.07144 11.1536 4.89314 11.5214 5.96815 11.5214C6.6354 11.5214 7.20997 11.3406 7.69187 10.979C8.18612 10.6174 8.5321 10.0688 8.72981 9.33312L11.0837 10.0439Z" fill="#D5A6BB"/>
<path d="M14.2831 2.74943C13.2328 2.74943 12.7077 2.29431 12.7077 1.38407C12.7077 0.461356 13.2328 0 14.2831 0C15.3334 0 15.8585 0.461356 15.8585 1.38407C15.8585 2.29431 15.3334 2.74943 14.2831 2.74943ZM15.5435 4.0961V13.4479H13.0042V4.0961H15.5435Z" fill="#D5A6BB"/>
<path d="M18.2352 13.4479V4.0961H20.4408L20.6076 5.92905C20.8424 5.29313 21.1945 4.8006 21.6641 4.45147C22.146 4.08986 22.7514 3.90906 23.4805 3.90906C23.9129 3.90906 24.2466 3.97764 24.4813 4.1148L24.1848 6.26572C24.0612 6.22831 23.9068 6.19714 23.7214 6.1722C23.5484 6.13479 23.3198 6.11609 23.0356 6.11609C22.6526 6.11609 22.2881 6.20961 21.9421 6.39664C21.6085 6.57121 21.3305 6.84553 21.108 7.2196C20.8856 7.58121 20.7744 8.04256 20.7744 8.60367V13.4479H18.2352Z" fill="#D5A6BB"/>
<path d="M30.0808 3.90906C31.3165 3.90906 32.2741 4.17715 32.9537 4.71332C33.6456 5.24949 34.1028 5.89788 34.3252 6.6585L31.9528 7.51886C31.7057 6.38418 31.094 5.81683 30.1179 5.81683C29.4136 5.81683 28.8637 6.06621 28.4683 6.56498C28.0853 7.06374 27.8937 7.80565 27.8937 8.79071C27.8937 9.78824 28.0914 10.5302 28.4868 11.0164C28.8946 11.4903 29.4445 11.7272 30.1364 11.7272C31.2114 11.7272 31.854 11.1723 32.064 10.0626L34.3623 10.8107C34.1523 11.6461 33.6827 12.3257 32.9537 12.8494C32.237 13.3731 31.3041 13.635 30.155 13.635C29.1912 13.635 28.3447 13.4417 27.6157 13.0551C26.899 12.6686 26.343 12.1137 25.9476 11.3905C25.5522 10.6673 25.3545 9.79447 25.3545 8.77201C25.3545 7.74954 25.5522 6.8767 25.9476 6.1535C26.3554 5.43029 26.9114 4.87542 27.6157 4.48887C28.3324 4.10233 29.1541 3.90906 30.0808 3.90906Z" fill="#D5A6BB"/>
<path d="M40.5613 3.90906C41.488 3.90906 42.3097 4.10233 43.0264 4.48887C43.7431 4.87542 44.2991 5.43029 44.6945 6.1535C45.1023 6.8767 45.3061 7.74954 45.3061 8.77201C45.3061 9.79447 45.1023 10.6673 44.6945 11.3905C44.2991 12.1137 43.7431 12.6686 43.0264 13.0551C42.3097 13.4417 41.488 13.635 40.5613 13.635C39.6222 13.635 38.7943 13.4417 38.0776 13.0551C37.3733 12.6686 36.8173 12.1137 36.4095 11.3905C36.0141 10.6673 35.8164 9.79447 35.8164 8.77201C35.8164 7.74954 36.0141 6.8767 36.4095 6.1535C36.8173 5.43029 37.3733 4.87542 38.0776 4.48887C38.7943 4.10233 39.6222 3.90906 40.5613 3.90906ZM40.5613 5.81683C39.8693 5.81683 39.3256 6.06621 38.9302 6.56498C38.5472 7.05127 38.3557 7.78695 38.3557 8.77201C38.3557 9.75707 38.5472 10.499 38.9302 10.9977C39.3256 11.484 39.8693 11.7272 40.5613 11.7272C41.2409 11.7272 41.7722 11.484 42.1553 10.9977C42.5507 10.499 42.7484 9.75707 42.7484 8.77201C42.7484 7.78695 42.5507 7.05127 42.1553 6.56498C41.7722 6.06621 41.2409 5.81683 40.5613 5.81683Z" fill="#D5A6BB"/>
<path d="M51.6567 3.90906C52.5834 3.90906 53.4051 4.10233 54.1218 4.48887C54.8385 4.87542 55.3945 5.43029 55.7899 6.1535C56.1977 6.8767 56.4016 7.74954 56.4016 8.77201C56.4016 9.79447 56.1977 10.6673 55.7899 11.3905C55.3945 12.1137 54.8385 12.6686 54.1218 13.0551C53.4051 13.4417 52.5834 13.635 51.6567 13.635C50.7176 13.635 49.8897 13.4417 49.1731 13.0551C48.4688 12.6686 47.9127 12.1137 47.505 11.3905C47.1096 10.6673 46.9119 9.79447 46.9119 8.77201C46.9119 7.74954 47.1096 6.8767 47.505 6.1535C47.9127 5.43029 48.4688 4.87542 49.1731 4.48887C49.8897 4.10233 50.7176 3.90906 51.6567 3.90906ZM51.6567 5.81683C50.9648 5.81683 50.4211 6.06621 50.0257 6.56498C49.6426 7.05127 49.4511 7.78695 49.4511 8.77201C49.4511 9.75707 49.6426 10.499 50.0257 10.9977C50.4211 11.484 50.9648 11.7272 51.6567 11.7272C52.3363 11.7272 52.8676 11.484 53.2507 10.9977C53.6461 10.499 53.8438 9.75707 53.8438 8.77201C53.8438 7.78695 53.6461 7.05127 53.2507 6.56498C52.8676 6.06621 52.3363 5.81683 51.6567 5.81683Z" fill="#D5A6BB"/>
<path d="M61.0284 0V10.5676C61.0284 11.004 61.1026 11.3095 61.2508 11.484C61.3991 11.6586 61.6462 11.7459 61.9922 11.7459C62.2023 11.7459 62.3753 11.7334 62.5112 11.7085C62.6471 11.6835 62.8201 11.6337 63.0302 11.5588L62.8078 13.2422C62.5977 13.3669 62.332 13.4604 62.0108 13.5227C61.7019 13.5975 61.3929 13.635 61.084 13.635C60.182 13.635 59.5209 13.4167 59.1008 12.9803C58.6931 12.5314 58.4892 11.8207 58.4892 10.8481V0H61.0284Z" fill="#D5A6BB"/>
<path d="M68.7451 13.635C67.287 13.635 66.1193 13.211 65.242 12.3631C64.3647 11.5027 63.9261 10.3057 63.9261 8.77201C63.9261 7.74954 64.1238 6.8767 64.5192 6.1535C64.9146 5.43029 65.4644 4.87542 66.1687 4.48887C66.8854 4.10233 67.7009 3.90906 68.6153 3.90906C69.5544 3.90906 70.3514 4.10233 71.0063 4.48887C71.6612 4.86295 72.1616 5.38041 72.5076 6.04127C72.8536 6.68967 73.0266 7.43158 73.0266 8.26701C73.0266 8.51639 73.0204 8.7533 73.008 8.97775C72.9957 9.20219 72.9771 9.40169 72.9524 9.57626H66.4097C66.5085 10.2995 66.7557 10.8419 67.1511 11.2035C67.5588 11.5526 68.084 11.7272 68.7265 11.7272C69.2702 11.7272 69.7089 11.6212 70.0425 11.4092C70.3761 11.1972 70.6356 10.9042 70.8209 10.5301L72.8412 11.3157C72.5447 12.0514 72.0257 12.625 71.2843 13.0364C70.5429 13.4354 69.6965 13.635 68.7451 13.635ZM68.5968 5.79813C67.3982 5.79813 66.6754 6.46522 66.4282 7.79942H70.5985C70.5244 7.15102 70.3143 6.6585 69.9683 6.32183C69.6347 5.9727 69.1775 5.79813 68.5968 5.79813Z" fill="#D5A6BB"/>
<path d="M78.8854 13.635C77.9463 13.635 77.0875 13.4666 76.3091 13.13C75.543 12.7933 74.919 12.3195 74.4371 11.7085L75.9013 10.2122C76.1979 10.6611 76.5933 11.0289 77.0875 11.3157C77.5818 11.6025 78.1687 11.7459 78.8483 11.7459C79.3302 11.7459 79.7133 11.6773 79.9975 11.5401C80.294 11.3905 80.4423 11.1598 80.4423 10.8481C80.4423 10.6486 80.3743 10.4803 80.2384 10.3431C80.1025 10.1935 79.8306 10.075 79.4229 9.98774L77.7918 9.65108C76.7168 9.42663 75.9507 9.08997 75.4935 8.64108C75.0487 8.17973 74.8263 7.58744 74.8263 6.86424C74.8263 6.353 74.9746 5.87294 75.2711 5.42405C75.58 4.97517 76.0372 4.61356 76.6427 4.33924C77.2482 4.05245 78.0019 3.90906 78.9039 3.90906C80.7821 3.90906 82.1289 4.48887 82.9445 5.6485L81.4246 7.14479C81.1528 6.70837 80.7944 6.37794 80.3496 6.1535C79.9171 5.91658 79.4599 5.79813 78.9781 5.79813C77.8907 5.79813 77.347 6.10362 77.347 6.71461C77.347 6.91411 77.4335 7.08868 77.6065 7.23831C77.7795 7.37547 78.0946 7.49392 78.5518 7.59368L80.4423 7.98645C81.3567 8.17349 82.0116 8.49145 82.407 8.94034C82.8024 9.37676 83.0001 9.90669 83.0001 10.5301C83.0001 11.4279 82.6417 12.1698 81.9251 12.7559C81.2207 13.3419 80.2075 13.635 78.8854 13.635Z" fill="#D5A6BB"/>
</svg>
