<svg width="30" height="30" viewBox="0 0 30 30" fill="none" xmlns="http://www.w3.org/2000/svg">
<path d="M10.6179 21.4286C16.4818 21.4286 21.2354 16.6316 21.2354 10.7143C21.2354 10.0437 21.1743 9.38743 21.0575 8.75094C20.4267 8.63306 19.7764 8.57145 19.1119 8.57145C13.248 8.57145 8.49442 13.3684 8.49442 19.2857C8.49442 19.9563 8.55547 20.6126 8.67229 21.2491C9.30303 21.367 9.95334 21.4286 10.6179 21.4286Z" fill="#C96895"/>
<path fill-rule="evenodd" clip-rule="evenodd" d="M8.67183 21.2491C3.73717 20.3268 0 15.961 0 10.7143C0 4.79694 4.7536 0 10.6175 0C15.8167 0 20.1432 3.77125 21.057 8.75091C20.4263 8.63303 19.776 8.57142 19.1114 8.57142C13.2476 8.57142 8.49396 13.3684 8.49396 19.2857C8.49396 19.9563 8.55502 20.6126 8.67183 21.2491Z" fill="#D5A6BB"/>
<path fill-rule="evenodd" clip-rule="evenodd" d="M10.6178 21.4285C16.4817 21.4285 21.2353 16.6315 21.2353 10.7142C21.2353 10.0436 21.1742 9.38734 21.0574 8.75085C25.9921 9.67305 29.7292 14.0389 29.7292 19.2856C29.7292 25.203 24.9756 29.9999 19.1118 29.9999C13.9125 29.9999 9.58607 26.2286 8.6722 21.249C9.30294 21.3669 9.95325 21.4285 10.6178 21.4285Z" fill="#FFE8F2"/>
</svg>
