<svg width="30" height="30" viewBox="0 0 30 30" fill="none" xmlns="http://www.w3.org/2000/svg">
<path fill-rule="evenodd" clip-rule="evenodd" d="M14.8644 23.5C19.5164 23.5 23.2876 19.6944 23.2876 15C23.2876 10.3056 19.5164 6.49999 14.8644 6.49999C10.2124 6.49999 6.44126 10.3056 6.44126 15C6.44126 19.6944 10.2124 23.5 14.8644 23.5ZM14.8644 30C23.0738 30 29.7289 23.2842 29.7289 15C29.7289 6.71572 23.0738 0 14.8644 0C6.65503 0 0 6.71572 0 15C0 23.2842 6.65503 30 14.8644 30Z" fill="#D5A6BB"/>
<path d="M15.0349 15.3284C16.5829 13.7663 19.0927 13.7663 20.6406 15.3284L28.3485 23.1065C29.8965 24.6686 29.8965 27.2013 28.3485 28.7634C26.8005 30.3255 24.2908 30.3255 22.7428 28.7634L15.0349 20.9852C13.4869 19.4231 13.4869 16.8904 15.0349 15.3284Z" fill="#FFE8F2"/>
<path d="M17.1986 23.1693L22.0939 28.1093C24.442 26.7879 26.3982 24.8426 27.7425 22.4957L22.8873 17.5962C22.0344 20.2822 19.8938 22.3865 17.1986 23.1693Z" fill="#C96895"/>
</svg>
