<svg width="30" height="30" viewBox="0 0 30 30" fill="none" xmlns="http://www.w3.org/2000/svg">
<path d="M8.97063 13.8534C9.52619 11.7614 11.6571 9.61098 13.7302 9.05034L26.6549 5.5551C28.728 4.99446 29.9582 6.23588 29.4026 8.32788L25.9389 21.3703C25.3834 23.4623 23.2524 25.6127 21.1793 26.1734L8.25469 29.6686C6.18159 30.2292 4.9514 28.9878 5.50696 26.8958L8.97063 13.8534Z" fill="#FFE8F2"/>
<path d="M3.79008 8.6245C4.34565 6.5325 6.4766 4.38212 8.5497 3.82148L21.4743 0.326235C23.5474 -0.234398 24.7776 1.00702 24.2221 3.09902L20.7584 16.1415C20.2028 18.2335 18.0719 20.3839 15.9988 20.9445L3.07415 24.4397C1.00105 25.0004 -0.22915 23.759 0.326418 21.667L3.79008 8.6245Z" fill="#D5A6BB"/>
</svg>
